<ttFont>
<head>
    <!-- Most of this table will be recalculated by the compiler -->
    <tableVersion value="1.0"/>
    <fontRevision value="1.0"/>
    <checkSumAdjustment value="0xad780b59"/>
    <magicNumber value="0x5f0f3cf5"/>
    <flags value="00000000 00000011"/>
    <unitsPerEm value="2048"/>
    <created value="Thu Aug 15 18:59:54 2019"/>
    <modified value="Fri Aug 16 02:19:20 2019"/>
    <xMin value="-496"/>
    <yMin value="-504"/>
    <xMax value="3731"/>
    <yMax value="2002"/>
<macStyle value="00000000 00000000"/>
    <lowestRecPPEM value="3"/>
    <fontDirectionHint value="2"/>
    <indexToLocFormat value="0"/>
    <glyphDataFormat value="0"/>
  </head>
          <CharString index="0">
            -1002 -90 callgsubr
            return
          </CharString>
          <CharString index="1">
            10 -15 -56 vvcurveto
            -596 -56 callsubr
            return
          </CharString>
          <CharString index="2">
            463 -350 289 return
          </CharString>
          <CharString index="3">
            rmoveto
            13 callsubr
            return
          </CharString>
          <CharString index="4">
            -404 -87 callgsubr
            138 callsubr
            290 -70 callgsubr
            72 callsubr
            endchar
          </CharString>
          <CharString index="5">
            rmoveto
            -18 callsubr
            50 callsubr
            endchar
          </CharString>
          <CharString index="6">
            312 -225 214 -316 -321 -235 -220 -317 return
          </CharString>
          <CharString index="7">
            38 callsubr
            endchar
          </CharString>
          <CharString index="8">
            -311 226 -215 315 -32 callgsubr
            3 callgsubr
            endchar
          </CharString>
          <CharString index="9">
            rmoveto
            321 235 220 317 return
          </CharString>
          <CharString index="10">
            rmoveto
            -73 -58 -53 -72 -72 58 -53 73 return
          </CharString>
          <CharString index="11">
            rmoveto
            -32 callsubr
            30 callsubr
            -38 callsubr
            endchar
          </CharString>
          <CharString index="12">
            -64 callsubr
            endchar
          </CharString>
          <CharString index="13">
            rmoveto
            -421 -74 callsubr
            return
          </CharString>
          <CharString index="14">
            41 callsubr
            endchar
          </CharString>
          <CharString index="15">
            65 callsubr
            -474 vlineto
            -213 138 -122 206 168 118 78 98 56 vhcurveto
            -166 vlineto
            return
          </CharString>
          <CharString index="16">
            rmoveto
            -695 vlineto
            -26 callsubr
            210 callsubr
            endchar
          </CharString>
          <CharString index="17">
            44 callsubr
            endchar
          </CharString>
          <CharString index="18">
            -97 hlineto
            152 -16 17 -19 -89 vvcurveto
            return
          </CharString>
          <CharString index="19">
            rmoveto
            -25 callsubr
            return
          </CharString>
          <CharString index="20">
            68 callsubr
            endchar
          </CharString>
          <CharString index="21">
            152 16 vhcurveto
            97 -640 -57 callsubr
            return
          </CharString>
          <CharString index="22">
            -1060 -56 callsubr
            return
          </CharString>
          <CharString index="23">
            rmoveto
            1002 vlineto
            89 18 19 return
          </CharString>
          <CharString index="24">
            1564 rmoveto
            329 287 rlineto
            10 return
          </CharString>
          <CharString index="25">
            -84 callgsubr
            hvcurveto
            endchar
          </CharString>
          <CharString index="26">
            545 97 vlineto
            -110 12 -14 14 61 vvcurveto
            return
          </CharString>
          <CharString index="27">
            rmoveto
            607 145 -607 hlineto
            endchar
          </CharString>
          <CharString index="28">
            -197 149 -121 0 215 -297 204 0 215 297 rlineto
            return
          </CharString>
          <CharString index="29">
            rmoveto
            79 64 56 77 76 -64 56 -79 -79 -64 -56 -76 -77 63 -56 80 hvcurveto
            endchar
          </CharString>
          <CharString index="30">
            579 97 vlineto
            -140 14 -18 14 78 vvcurveto
            return
          </CharString>
          <CharString index="31">
            1860 rmoveto
            -199 -149 return
          </CharString>
          <CharString index="32">
            -294 vlineto
            -154 -297 rlineto
            return
          </CharString>
          <CharString index="33">
            -51 0 -88 76 -20 rlineto
            56 -14 return
          </CharString>
          <CharString index="34">
            -45 -38 -50 -51 45 -37 57 hvcurveto
            return
          </CharString>
          <CharString index="35">
            -56 -53 -71 -71 56 -52 70 hvcurveto
            return
          </CharString>
          <CharString index="36">
            rmoveto
            312 -766 -82 -142 -111 -184 -72 -116 rlinecurve
            -6 256 vlineto
            166 460 90 220 219 534 56 137 20 13 100 16 rlinecurve
            97 -412 -97 vlineto
            132 -10 19 -24 -44 -116 rrcurveto
            -187 -483 -177 483 -42 116 19 23 131 11 rlinecurve
            97 -564 -97 vlineto
            97 -19 23 -21 51 -126 rrcurveto
            endchar
          </CharString>
          <CharString index="37">
            54 32 74 42 101 hhcurveto
            131 81 -78 -143 hvcurveto
            -473 -91 callgsubr
            135 callsubr
            521 vlineto
            208 -142 121 -211 return
          </CharString>
          <CharString index="38">
            -45 callsubr
            -73 -58 -54 -72 -71 58 -53 73 hvcurveto
            return
          </CharString>
          <CharString index="39">
            629 97 vlineto
            -140 16 -19 18 85 vvcurveto
            return
          </CharString>
          <CharString index="40">
            297 -204 0 -215 -297 rlineto
            return
          </CharString>
          <CharString index="41">
            1172 rmoveto
            218 callsubr
            return
          </CharString>
          <CharString index="42">
            1002 35 callgsubr
            return
          </CharString>
          <CharString index="43">
            562 -95 callgsubr
            return
          </CharString>
          <CharString index="44">
            rmoveto
            -421 -51 0 -88 76 return
          </CharString>
          <CharString index="45">
            rmoveto
            335 -545 rlineto
            -382 79 callsubr
            666 25 callsubr
            147 callsubr
            endchar
          </CharString>
          <CharString index="46">
            1172 rmoveto
            350 370 rlineto
            14 -296 vlineto
            -176 -384 rlineto
            return
          </CharString>
          <CharString index="47">
            -382 rlineto
            91 hlineto
            41 227 63 34 257 8 54 1 rcurveline
            return
          </CharString>
          <CharString index="48">
            1554 rmoveto
            -217 -199 -214 199 return
          </CharString>
          <CharString index="49">
            -421 -52 0 -88 76 -41 callsubr
            return
          </CharString>
          <CharString index="50">
            -97 vlineto
            152 -16 17 -19 -89 vvcurveto
            return
          </CharString>
          <CharString index="51">
            vlineto
            -65 -18 -15 -124 -13 vhcurveto
            -97 return
          </CharString>
          <CharString index="52">
            221 rmoveto
            1002 vlineto
            89 return
          </CharString>
          <CharString index="53">
            -431 -649 430 vlineto
            101 callsubr
            -107 callsubr
            return
          </CharString>
          <CharString index="54">
            1210 rmoveto
            107 87 86 224 hvcurveto
            return
          </CharString>
          <CharString index="55">
            598 vlineto
            -70 callsubr
            return
          </CharString>
          <CharString index="56">
            -1097 79 callsubr
            return
          </CharString>
          <CharString index="57">
            -68 callsubr
            endchar
          </CharString>
          <CharString index="58">
            1564 rmoveto
            328 287 rlineto
            10 -75 callsubr
            return
          </CharString>
          <CharString index="59">
            rmoveto
            60 48 45 59 60 -48 44 -60 hvcurveto
            -13 hlineto
            -60 -47 -44 -60 -59 47 -45 60 hvcurveto
            374 hmoveto
            60 -58 callgsubr
            return
          </CharString>
          <CharString index="60">
            rmoveto
            -415 -74 callsubr
            -106 callsubr
            -81 callsubr
            598 vlineto
            return
          </CharString>
          <CharString index="61">
            -246 147 -81 156 114 123 43 48 55 vhcurveto
            224 callsubr
            return
          </CharString>
          <CharString index="62">
            1588 rmoveto
            73 58 53 71 72 -58 54 -73 return
          </CharString>
          <CharString index="63">
            1353 1444 rmoveto
            -1291 hlineto
            -11 return
          </CharString>
          <CharString index="64">
            1266 rmoveto
            653 162 -653 hlineto
            return
          </CharString>
          <CharString index="65">
            62 callsubr
            120 0 -215 return
          </CharString>
          <CharString index="66">
            -19 rlineto
            56 -15 10 -15 -57 vvcurveto
            return
          </CharString>
          <CharString index="67">
            -64 -58 -80 -81 64 -58 80 hvcurveto
            return
          </CharString>
          <CharString index="68">
            rmoveto
            -163 120 -109 147 -33 vhcurveto
            -155 -44 -94 -77 -111 vvcurveto
            -106 97 -69 134 -8 vhcurveto
            -194 -27 -97 -75 -100 vvcurveto
            -149 185 -106 335 341 226 152 214 181 -146 108 -258 vhcurveto
            -239 hlineto
            -95 -51 30 58 44 31 36 71 23 hvcurveto
            -7 50 36 -3 36 hhcurveto
            253 211 125 215 89 -42 87 -62 40 hvcurveto
            250 -16 0 132 -373 -22 rlineto
            28 -63 -89 17 -95 hhcurveto
            -272 -198 -145 -209 hvcurveto
            278 13 rmoveto
            129 75 93 115 123 78 -87 -146 -131 -81 -93 -108 -113 -89 84 151 vhcurveto
            -68 -898 rmoveto
            74 52 53 91 15 vhcurveto
            231 hlineto
            144 61 -50 -80 -101 -114 -74 -188 -178 -99 67 96 hvcurveto
            endchar
          </CharString>
          <CharString index="69">
            -90 hlineto
            -56 82 callgsubr
            71 24 -29 -171 30 hvcurveto
            86 510 -86 hlineto
            -173 -34 -23 -26 -68 hhcurveto
            -247 538 hlineto
            254 -8 229 -7 63 -40 52 -215 rlinecurve
            91 hlineto
            return
          </CharString>
          <CharString index="70">
            rmoveto
            185 127 103 165 -8 hvcurveto
            -107 hlineto
            -67 -2 -83 -46 -112 hhcurveto
            -111 -84 46 67 -2 hvcurveto
            -107 hlineto
            -165 -8 127 -103 185 hhcurveto
            return
          </CharString>
          <CharString index="71">
            1214 rmoveto
            86 68 62 86 84 -68 62 -86 -85 -68 -62 -84 -86 68 -62 85 hvcurveto
            return
          </CharString>
          <CharString index="72">
            -280 -191 268 374 354 170 242 301 62 callgsubr
          </CharString>
          <CharString index="73">
            304 107 304 -107 0 100 -274 171 -62 0 -272 -171 rlineto
            return
          </CharString>
          <CharString index="74">
            -107 0 100 -273 171 -62 0 -272 -171 rlineto
            return
          </CharString>
          <CharString index="75">
            -1148 -89 callsubr
            -107 callsubr
            return
          </CharString>
          <CharString index="76">
            1616 rmoveto
            588 147 -588 hlineto
            return
          </CharString>
          <CharString index="77">
            1568 rmoveto
            104 84 82 209 hvcurveto
            return
          </CharString>
          <CharString index="78">
            517 1444 -16 callsubr
            return
          </CharString>
          <CharString index="79">
            72 59 53 72 72 -58 53 -73 hvcurveto
            endchar
          </CharString>
          <CharString index="80">
            1591 rmoveto
            -94 callgsubr
            return
          </CharString>
          <CharString index="81">
            -374 281 -190 314 return
          </CharString>
          <CharString index="82">
            -328 233 -194 299 return
          </CharString>
          <CharString index="83">
            -169 -122 -75 -97 -57 vhcurveto
            return
          </CharString>
          <CharString index="84">
            -108 68 -132 2 hvcurveto
            return
          </CharString>
          <CharString index="85">
            653 76 callsubr
            return
          </CharString>
          <CharString index="86">
            18 19 -86 callsubr
            return
          </CharString>
          <CharString index="87">
            rmoveto
            269 -754 180 0 248 680 237 -680 180 0 279 756 50 135 21 13 96 16 rlinecurve
            97 -384 -97 vlineto
            111 -8 18 -26 -40 -116 rrcurveto
            -163 -472 -152 472 -37 115 16 27 101 8 rlinecurve
            97 -510 -97 vlineto
            101 -8 19 -27 -40 -115 rrcurveto
            -165 -472 -153 472 -37 116 15 25 111 9 rlinecurve
            97 -541 -97 vlineto
            96 -20 29 -20 45 -126 rrcurveto
            endchar
          </CharString>
          <CharString index="88">
            rmoveto
            -464 352 -286 422 212 206 54 76 117 vhcurveto
            388 vlineto
            87 15 16 149 15 vhcurveto
            96 -614 -96 vlineto
            167 -16 15 -15 -86 vvcurveto
            -328 vlineto
            -37 -53 -82 -20 -98 hhcurveto
            -282 -192 268 374 354 169 242 300 196 125 -87 -230 57 hvcurveto
            91 hlineto
            -11 20 callgsubr
          </CharString>
          <CharString index="89">
            -423 1152 -248 0 -422 -1147 -60 -160 -23 -24 -130 -16 rlinecurve
            -97 489 97 vlineto
            -158 21 -20 27 52 149 rrcurveto
            63 183 501 0 64 -183 51 -149 -20 -27 -158 -21 rlinecurve
            -97 return
          </CharString>
          <CharString index="90">
            rmoveto
            190 130 87 140 -8 hvcurveto
            -110 hlineto
            -57 -1 -86 -39 -115 hhcurveto
            -114 -87 39 57 -1 hvcurveto
            -110 hlineto
            -140 -8 130 -87 190 hhcurveto
            return
          </CharString>
          <CharString index="91">
            rmoveto
            -474 -97 hlineto
            141 -18 18 -23 -106 vvcurveto
            -4 -970 rlineto
            -95 -17 -19 -142 -19 vhcurveto
            -97 477 97 vlineto
            -148 16 return
          </CharString>
          <CharString index="92">
            63 callsubr
            124 0 -49 callgsubr
            return
          </CharString>
          <CharString index="93">
            -123 -122 -73 68 84 vhcurveto
            8 -103 vlineto
            -3 -16 -1 -17 -19 vvcurveto
            -138 110 -129 192 vhcurveto
            return
          </CharString>
          <CharString index="94">
            rmoveto
            -465 352 -285 422 199 200 56 69 94 vhcurveto
            10 341 rlineto
            -34 callgsubr
            return
          </CharString>
          <CharString index="95">
            -18 19 -2 66 callgsubr
            1 95 16 19 141 19 rlinecurve
            97 93 callgsubr
            return
          </CharString>
          <CharString index="96">
            14 469 rlineto
            -91 hlineto
            -69 -303 -79 -41 -214 -7 return
          </CharString>
          <CharString index="97">
            1223 rmoveto
            80 64 58 81 80 -64 58 -80 -80 return
          </CharString>
          <CharString index="98">
            1717 534 216 66 callsubr
            return
          </CharString>
          <CharString index="99">
            -25 -55 -52 -51 -27 -67 -55 -56 16 22 return
          </CharString>
          <CharString index="100">
            1207 rmoveto
            67 callgsubr
            return
          </CharString>
          <CharString index="101">
            480 1030 -47 callsubr
            return
          </CharString>
          <CharString index="102">
            -3 16 hvcurveto
            -103 -8 hlineto
            -85 -72 -67 return
          </CharString>
          <CharString index="103">
            -72 -59 -54 -72 -71 58 -53 73 hvcurveto
            return
          </CharString>
          <CharString index="104">
            rmoveto
            202 179 199 -179 return
          </CharString>
          <CharString index="105">
            61 14 14 110 13 vhcurveto
            97 return
          </CharString>
          <CharString index="106">
            -61 hhcurveto
            -104 -84 -82 -209 hvcurveto
            return
          </CharString>
          <CharString index="107">
            1710 99 721 rmoveto
            return
          </CharString>
          <CharString index="108">
            1149 91 499 rmoveto
            return
          </CharString>
          <CharString index="109">
            -124 -52 callgsubr
            return
          </CharString>
          <CharString index="110">
            807 184 304 rmoveto
            return
          </CharString>
          <CharString index="111">
            -31 24 rlineto
            40 -54 -47 27 return
          </CharString>
          <CharString index="112">
            rmoveto
            366 -1152 245 0 326 1045 312 -1045 250 0 364 1148 51 161 29 23 130 15 rlinecurve
            97 -487 -33 callgsubr
            203 callsubr
            endchar
          </CharString>
          <CharString index="113">
            rmoveto
            469 156 vlineto
            414 -685 151 callsubr
            -372 rcurveline
            -152 427 hlineto
            101 callsubr
            -107 callsubr
            -50 callsubr
          </CharString>
          <CharString index="114">
            rmoveto
            242 -1 -193 153 -392 hhcurveto
            -661 -89 callsubr
            -107 callsubr
            -68 callsubr
            145 callsubr
            endchar
          </CharString>
          <CharString index="115">
            rmoveto
            177 147 61 89 77 hvcurveto
            148 callsubr
            -323 233 -199 292 vhcurveto
            endchar
          </CharString>
          <CharString index="116">
            14 430 rlineto
            -91 hlineto
            -56 -273 -80 -26 -265 -9 rrcurveto
            214 callsubr
            endchar
          </CharString>
          <CharString index="117">
            1241 1177 hmoveto
            -11 callsubr
            11 callsubr
            return
          </CharString>
          <CharString index="118">
            -204 -6 rcurveline
            1104 -4 callgsubr
            -107 callsubr
            vlineto
            return
          </CharString>
          <CharString index="119">
            1172 rmoveto
            121 hlineto
            -168 384 rlineto
            -307 -14 hlineto
            return
          </CharString>
          <CharString index="120">
            -463 350 -289 403 461 298 331 423 return
          </CharString>
          <CharString index="121">
            1588 rmoveto
            193 109 129 138 19 -1 17 return
          </CharString>
          <CharString index="122">
            1545 rmoveto
            168 vlineto
            -608 -164 rlineto
            -98 vlineto
            return
          </CharString>
          <CharString index="123">
            124 -13 18 -16 -63 vvcurveto
            -638 -56 callsubr
            return
          </CharString>
          <CharString index="124">
            1861 rmoveto
            -251 -10 hlineto
            275 -287 rlineto
            return
          </CharString>
          <CharString index="125">
            27 callgsubr
            193 147 350 vvcurveto
            endchar
          </CharString>
          <CharString index="126">
            1333 456 1030 -92 callsubr
            return
          </CharString>
          <CharString index="127">
            486 hmoveto
            80 64 58 81 80 -64 58 -80 -80 return
          </CharString>
          <CharString index="128">
            -34 vhcurveto
            -90 vlineto
            -27 40 73 -22 87 hhcurveto
            endchar
          </CharString>
          <CharString index="129">
            rmoveto
            162 106 75 117 117 -94 74 return
          </CharString>
          <CharString index="130">
            1532 743 93 callsubr
            return
          </CharString>
          <CharString index="131">
            131 hlineto
            225 297 rmoveto
            -230 return
          </CharString>
          <CharString index="132">
            97 vlineto
            -161 17 -21 24 97 vvcurveto
            return
          </CharString>
          <CharString index="133">
            -97 vlineto
            124 -13 18 -15 -65 vvcurveto
            return
          </CharString>
          <CharString index="134">
            rmoveto
            202 69 callsubr
            endchar
          </CharString>
          <CharString index="135">
            rmoveto
            143 vlineto
            -623 -140 rlineto
            return
          </CharString>
          <CharString index="136">
            rmoveto
            57 45 37 77 callsubr
            return
          </CharString>
          <CharString index="137">
            1193 vlineto
            13 430 rlineto
            return
          </CharString>
          <CharString index="138">
            -491 rmoveto
            75 callsubr
            return
          </CharString>
          <CharString index="139">
            -171 -124 -78 -98 -56 vhcurveto
            return
          </CharString>
          <CharString index="140">
            -26 -31 -28 hvcurveto
            -85 vlineto
            9 19 return
          </CharString>
          <CharString index="141">
            -45 -38 -51 -50 45 -37 57 hvcurveto
            return
          </CharString>
          <CharString index="142">
            rmoveto
            623 113 -623 hlineto
            return
          </CharString>
          <CharString index="143">
            rmoveto
            608 132 -608 hlineto
            return
          </CharString>
          <CharString index="144">
            17 19 152 16 vhcurveto
            97 return
          </CharString>
          <CharString index="145">
            rmoveto
            157 127 69 87 61 hvcurveto
            -95 26 91 -55 114 hhcurveto
            83 67 25 28 40 hvcurveto
            91 vlineto
            -6 -14 -18 -2 -21 hhcurveto
            -57 -47 31 86 hvcurveto
            459 vlineto
            240 -161 105 -263 -260 -194 -107 -144 -76 59 -52 80 82 59 56 73 40 -18 36 -28 23 vhcurveto
            15 39 47 8 51 hhcurveto
            140 93 -61 -171 hvcurveto
            -68 vlineto
            -231 -50 rlineto
            -295 -63 -113 -104 -161 vvcurveto
            -148 125 -109 179 vhcurveto
            -28 304 rmoveto
            98 67 57 178 39 vhcurveto
            118 26 rlineto
            -283 vlineto
            -56 -38 -71 -36 -84 hhcurveto
            -98 -72 57 98 hvcurveto
            return
          </CharString>
          <CharString index="146">
            rmoveto
            -114 -160 -36 -27 -133 -14 rrcurveto
            -97 507 97 vlineto
            -160 21 -7 30 84 128 rrcurveto
            213 324 220 -324 85 -126 -9 -32 -159 -21 rlinecurve
            -97 675 97 vlineto
            -111 22 -43 25 -76 112 rrcurveto
            -337 498 279 399 107 154 39 26 132 14 rlinecurve
            97 -506 -97 vlineto
            160 -21 6 -30 -83 -128 rrcurveto
            -202 -313 -212 313 -85 126 9 32 159 21 rlinecurve
            97 -675 -97 vlineto
            113 -22 40 -25 77 -112 328 -486 rcurveline
            endchar
          </CharString>
          <CharString index="147">
            rmoveto
            -516 -97 hlineto
            140 -16 21 -25 -3 -106 rrcurveto
            -22 -970 -3 -97 -15 -19 -140 -17 rlinecurve
            -97 468 97 vlineto
            -143 17 -16 20 -1 99 rrcurveto
            977 vlineto
            451 -1210 165 0 90 276 340 936 20 -996 2 -87 -18 -17 -142 -15 rlinecurve
            -97 625 97 vlineto
            -150 15 -18 19 -2 90 rrcurveto
            -21 1002 -2 90 21 19 150 15 rlinecurve
            97 vlineto
            -524 1 -361 -1086 rlineto
            endchar
          </CharString>
          <CharString index="148">
            180 148 60 90 80 vhcurveto
            96 vlineto
            -52 -60 -100 -32 -94 hhcurveto
            -227 -151 141 232 -22 hvcurveto
            676 hlineto
            3 19 2 32 32 vvcurveto
            274 -164 170 -287 -303 -213 -217 -323 vhcurveto
            515 412 rmoveto
            127 71 -99 -180 hvcurveto
            -3 0 -4 -3 vvcurveto
            -429 hlineto
            194 12 91 95 128 hhcurveto
            return
          </CharString>
          <CharString index="149">
            rmoveto
            290 -236 145 -386 vhcurveto
            -642 -89 callsubr
            -107 callsubr
            -22 callsubr
            311 172 vlineto
            372 250 165 298 hvcurveto
            -319 -17 rmoveto
            -212 -131 -108 -260 -11 vhcurveto
            -84 -4 0 675 84 -3 rlineto
            264 -11 127 -119 -207 vvcurveto
            endchar
          </CharString>
          <CharString index="150">
            290 -141 231 -211 126 vhcurveto
            -4 24 26 -3 27 hhcurveto
            175 121 60 135 1 hvcurveto
            97 -67 93 -84 57 vhcurveto
            -95 hlineto
            20 -29 15 -62 -51 vvcurveto
            -125 -67 -87 -144 vhcurveto
            -101 -110 24 -143 174 callsubr
            -70 callgsubr
            72 callsubr
            endchar
          </CharString>
          <CharString index="151">
            417 49 0 88 -75 19 rlineto
            -58 15 -9 15 57 vvcurveto
            800 vlineto
            -421 -74 callsubr
            9 -15 -56 vvcurveto
            -551 vlineto
            -53 -32 -69 -43 -92 hhcurveto
            -132 -77 79 148 hvcurveto
            return
          </CharString>
          <CharString index="152">
            -46 -47 -47 hvcurveto
            -86 vlineto
            22 31 55 19 60 hhcurveto
            74 45 -32 -51 -53 -45 -46 -107 -72 hvcurveto
            118 hlineto
            180 74 66 66 86 vvcurveto
            99 -90 67 -135 vhcurveto
            return
          </CharString>
          <CharString index="153">
            512 vlineto
            53 49 122 37 112 hhcurveto
            51 50 -7 -9 27 hvcurveto
            14 21 8 40 39 vvcurveto
            79 -37 68 -93 -103 -94 -79 -172 -112 vhcurveto
            return
          </CharString>
          <CharString index="154">
            667 97 vlineto
            -162 17 -21 24 97 vvcurveto
            1097 232 callsubr
            return
          </CharString>
          <CharString index="155">
            rmoveto
            -7 -320 rlineto
            91 hlineto
            50 172 38 162 callsubr
            -52 -29 -133 -4 rrcurveto
            -242 -8 552 822 rlineto
            87 vlineto
            return
          </CharString>
          <CharString index="156">
            1312 91 495 139 callsubr
            -29 callgsubr
            return
          </CharString>
          <CharString index="157">
            653 97 vlineto
            -125 16 -28 24 -58 155 rrcurveto
            -839 304 rmoveto
            209 602 210 -602 rlineto
            return
          </CharString>
          <CharString index="158">
            537 vlineto
            303 -5 0 132 -303 -7 rlineto
            218 -65 vlineto
            -345 -264 rlineto
            -79 134 vlineto
            return
          </CharString>
          <CharString index="159">
            rmoveto
            -427 -51 0 -88 78 -20 rlineto
            60 -15 10 -14 -56 vvcurveto
            -474 vlineto
            -213 187 callsubr
            endchar
          </CharString>
          <CharString index="160">
            rmoveto
            79 64 56 77 76 -64 56 -79 -79 -64 -56 -76 -77 64 -56 79 hvcurveto
            endchar
          </CharString>
          <CharString index="161">
            1172 rmoveto
            202 370 rlineto
            14 -255 vlineto
            -68 -384 rlineto
            return
          </CharString>
          <CharString index="162">
            1564 rmoveto
            120 hlineto
            -145 297 rlineto
            -307 -10 hlineto
            return
          </CharString>
          <CharString index="163">
            1172 rmoveto
            122 hlineto
            -168 384 rlineto
            -308 -14 hlineto
            return
          </CharString>
          <CharString index="164">
            -110 hlineto
            -99 -3 -21 -35 -43 hhcurveto
            -28 -26 14 25 -31 hvcurveto
            return
          </CharString>
          <CharString index="165">
            -109 hlineto
            -91 -3 -20 -33 -41 hhcurveto
            -27 130 callsubr
            return
          </CharString>
          <CharString index="166">
            26 -15 -24 31 hvcurveto
            31 -25 rlineto
            -40 54 48 -26 63 hhcurveto
            return
          </CharString>
          <CharString index="167">
            1556 rmoveto
            -254 -14 hlineto
            297 -370 rlineto
            return
          </CharString>
          <CharString index="168">
            133 200 vvcurveto
            133 -71 93 -114 -114 return
          </CharString>
          <CharString index="169">
            1564 rmoveto
            199 148 197 -148 return
          </CharString>
          <CharString index="170">
            1172 rmoveto
            217 199 214 -199 return
          </CharString>
          <CharString index="171">
            115 0 -222 345 -97 callgsubr
          </CharString>
          <CharString index="172">
            rmoveto
            -420 -74 callsubr
            9 -15 -56 vvcurveto
            return
          </CharString>
          <CharString index="173">
            rmoveto
            462 649 -462 171 callsubr
            return
          </CharString>
          <CharString index="174">
            -196 149 -122 0 215 -297 return
          </CharString>
          <CharString index="175">
            640 97 vlineto
            -152 16 -18 19 89 vvcurveto
            return
          </CharString>
          <CharString index="176">
            371 rlineto
            13 -255 vlineto
            -68 -384 rlineto
            return
          </CharString>
          <CharString index="177">
            72 58 53 72 72 -58 53 -72 hvcurveto
            endchar
          </CharString>
          <CharString index="178">
            45 -37 58 hvcurveto
            355 hmoveto
            57 45 37 return
          </CharString>
          <CharString index="179">
            -270 -163 290 347 vhcurveto
            return
          </CharString>
          <CharString index="180">
            -134 -83 -68 33 callsubr
            return
          </CharString>
          <CharString index="181">
            145 -63 0 -279 -145 rlineto
            return
          </CharString>
          <CharString index="182">
            139 131 66 127 127 return
          </CharString>
          <CharString index="183">
            97 vlineto
            -161 17 -22 24 97 vvcurveto
            return
          </CharString>
          <CharString index="184">
            51 50 -45 38 -57 hvcurveto
            -13 hlineto
            -57 return
          </CharString>
          <CharString index="185">
            -45 38 -56 hvcurveto
            -13 hlineto
            -58 -45 -38 return
          </CharString>
          <CharString index="186">
            vlineto
            -97 -22 -24 -161 -17 vhcurveto
            -97 return
          </CharString>
          <CharString index="187">
            -1195 -98 callsubr
            return
          </CharString>
          <CharString index="188">
            -625 vlineto
            -281 -33 -143 return
          </CharString>
          <CharString index="189">
            632 -23 -98 callsubr
            return
          </CharString>
          <CharString index="190">
            364 hmoveto
            -94 callgsubr
            return
          </CharString>
          <CharString index="191">
            97 22 23 161 17 vhcurveto
            97 return
          </CharString>
          <CharString index="192">
            -64 hhcurveto
            -107 -87 -87 -223 hvcurveto
            return
          </CharString>
          <CharString index="193">
            rmoveto
            313 249 167 277 212 -122 140 -276 86 hvcurveto
            -120 37 rlineto
            -162 51 -88 66 121 vvcurveto
            126 92 89 178 176 132 -96 -211 40 vhcurveto
            91 hlineto
            -11 329 rlineto
            62 -81 -161 50 -187 hhcurveto
            -348 -212 -177 -247 -207 140 -141 257 -78 hvcurveto
            119 -38 rlineto
            172 -53 81 -80 -127 vvcurveto
            -131 -106 -93 -170 -195 -161 102 219 -49 vhcurveto
            -91 hlineto
            11 -331 rlineto
            -70 95 189 -54 205 hhcurveto
            return
          </CharString>
          <CharString index="194">
            rmoveto
            -248 306 204 248 83 102 28 25 106 15 rlinecurve
            97 -425 -97 vlineto
            126 -13 10 -20 -67 -84 rrcurveto
            -142 -179 -145 179 -68 84 10 20 129 13 rlinecurve
            97 -546 -97 vlineto
            75 -16 28 -18 71 -88 rrcurveto
            249 -307 -192 -236 -91 -111 -31 -29 -117 -18 rlinecurve
            -97 438 97 vlineto
            -117 12 -18 22 73 94 rrcurveto
            132 171 144 -177 73 -90 -14 -18 -126 -14 rlinecurve
            -97 551 97 vlineto
            -79 17 -32 21 -72 89 rrcurveto
            endchar
          </CharString>
          <CharString index="195">
            rmoveto
            -87 -82 -33 -38 -47 hvcurveto
            -93 vlineto
            3 11 21 5 27 hhcurveto
            70 34 -38 -99 hvcurveto
            -85 -5 -206 -74 vvcurveto
            -236 141 -160 277 271 204 190 386 295 -103 192 -154 -102 -66 -94 -123 30 vhcurveto
            145 -33 100 -151 -188 vvcurveto
            -207 -105 -106 -145 -147 -67 100 176 vhcurveto
            66 8 215 76 vvcurveto
            177 -80 83 -149 vhcurveto
            endchar
          </CharString>
          <CharString index="196">
            324 -185 194 -229 -151 -131 -73 -106 -53 vhcurveto
            2 635 113 callgsubr
            -1250 123 vlineto
            103 124 rlineto
            -79 58 117 -68 142 hhcurveto
            269 214 214 331 hvcurveto
            -288 -23 rmoveto
            -245 -111 -142 -158 -93 -67 43 47 -30 vhcurveto
            574 vlineto
            64 34 73 39 89 hhcurveto
            159 104 -139 -241 hvcurveto
            return
          </CharString>
          <CharString index="197">
            rmoveto
            -170 127 -90 192 -49 vhcurveto
            91 -23 rlineto
            129 -34 50 -40 -77 vvcurveto
            -81 -75 -57 -127 -162 -108 86 139 -34 vhcurveto
            -91 hlineto
            7 -261 rlineto
            -52 86 145 -40 167 hhcurveto
            264 185 125 194 169 -110 94 -203 52 hvcurveto
            -91 23 rlineto
            -119 30 -66 38 79 vvcurveto
            -23 callgsubr
            hvcurveto
            return
          </CharString>
          <CharString index="198">
            1703 852 -29 rmoveto
            413 339 338 414 414 -339 338 -413 -414 -339 -338 -414 -414 339 -338 414 hvcurveto
            85 vmoveto
            -360 -296 300 367 367 296 300 360 359 296 -300 -367 -367 -296 -300 -359 hvcurveto
            return
          </CharString>
          <CharString index="199">
            rmoveto
            219 -172 123 -253 23 vhcurveto
            198 23 152 105 177 vvcurveto
            217 -195 133 -354 vhcurveto
            -686 -89 callsubr
            -107 callsubr
            193 callsubr
            endchar
          </CharString>
          <CharString index="200">
            rmoveto
            446 -344 255 -475 vhcurveto
            -649 -89 callsubr
            -107 callsubr
            -48 callgsubr
            -332 -18 9 callgsubr
            return
          </CharString>
          <CharString index="201">
            rmoveto
            12 -712 rlineto
            -230 4 113 -98 176 hhcurveto
            118 110 44 65 55 hvcurveto
            93 vlineto
            -22 -34 -51 -14 -59 hhcurveto
            -102 -75 55 149 3 hvcurveto
            17 670 rlineto
            endchar
          </CharString>
          <CharString index="202">
            rmoveto
            103 75 72 143 hvcurveto
            -107 hlineto
            -50 -26 -22 -39 -25 -27 8 14 -38 vhcurveto
            -32 13 rlineto
            18 -44 -43 12 -49 hhcurveto
            -101 -77 -72 -142 hvcurveto
            107 hlineto
            50 return
          </CharString>
          <CharString index="203">
            450 1445 rmoveto
            -91 hlineto
            -255 -119 89 callgsubr
            -67 478 67 vlineto
            -116 11 -24 16 56 vvcurveto
            return
          </CharString>
          <CharString index="204">
            1476 rmoveto
            103 75 72 142 hvcurveto
            -107 hlineto
            -50 -26 -22 -39 -25 -27 8 15 -38 vhcurveto
            -32 74 callgsubr
            return
          </CharString>
          <CharString index="205">
            427 624 rmoveto
            -30 callgsubr
            -31 callgsubr
            -157 -262 -260 152 -160 191 hvcurveto
            return
          </CharString>
          <CharString index="206">
            680 486 1495 -63 callsubr
            -41 callsubr
            -85 callsubr
            -64 callsubr
            return
          </CharString>
          <CharString index="207">
            9 17 2 15 hhcurveto
            77 54 -25 -55 -52 -51 -27 -66 -56 -56 16 22 -33 hvcurveto
            -95 vlineto
            -34 47 76 -21 92 hhcurveto
            return
          </CharString>
          <CharString index="208">
            86 19 17 140 17 vhcurveto
            97 -629 -57 callsubr
            return
          </CharString>
          <CharString index="209">
            rmoveto
            162 105 75 117 117 -94 74 -134 -82 -69 33 callsubr
            136 callsubr
            return
          </CharString>
          <CharString index="210">
            rmoveto
            105 78 61 122 hvcurveto
            -110 hlineto
            -43 -27 -19 -41 -25 -27 7 12 -39 vhcurveto
            -33 11 rlineto
            16 -46 return
          </CharString>
          <CharString index="211">
            80 65 58 81 80 -65 58 -80 -80 -40 callsubr
            return
          </CharString>
          <CharString index="212">
            -27 -44 -44 -42 -39 -94 -63 hvcurveto
            101 hlineto
            159 64 57 56 73 vvcurveto
            84 -77 58 -120 vhcurveto
            return
          </CharString>
          <CharString index="213">
            1597 196 1228 rmoveto
            -695 vlineto
            -26 callsubr
            210 callsubr
            return
          </CharString>
          <CharString index="214">
            1564 rmoveto
            200 148 196 -148 121 0 -215 -67 callsubr
            return
          </CharString>
          <CharString index="215">
            370 rlineto
            14 vlineto
            173 hmoveto
            -175 -384 132 0 296 370 rlineto
            14 vlineto
            return
          </CharString>
          <CharString index="216">
            -162 -139 vhcurveto
            56 -80 71 47 rlineto
            268 182 79 154 292 vvcurveto
            endchar
          </CharString>
          <CharString index="217">
            356 hmoveto
            57 44 37 51 50 -44 38 -57 hvcurveto
            -13 hlineto
            -57 -73 callsubr
            endchar
          </CharString>
          <CharString index="218">
            1172 rmoveto
            218 199 213 -199 125 0 -49 callgsubr
            return
          </CharString>
          <CharString index="219">
            hhcurveto
            -103 -79 -62 -121 hvcurveto
            110 hlineto
            43 26 19 41 26 27 -7 -13 38 vhcurveto
            return
          </CharString>
          <CharString index="220">
            53 -70 -70 -57 -53 -71 -71 56 -52 71 hvcurveto
            364 hmoveto
            71 callgsubr
            return
          </CharString>
          <CharString index="221">
            -25 14 25 -32 hvcurveto
            4 callsubr
            85 callsubr
            111 hlineto
            98 return
          </CharString>
          <CharString index="222">
            -625 vlineto
            -281 76 callgsubr
            78 154 292 vvcurveto
            endchar
          </CharString>
          <CharString index="223">
            75 60 53 72 72 -60 52 -75 -74 -60 -52 -72 -72 60 -53 74 hvcurveto
            return
          </CharString>
          <CharString index="224">
            36 hhcurveto
            62 -1 49 -26 -47 vvcurveto
            -50 -49 -27 -69 -58 -52 14 19 return
          </CharString>
          <CharString index="225">
            1180 rmoveto
            212 119 146 159 22 -1 21 return
          </CharString>
          <CharString index="226">
            -545 -97 vlineto
            16 callsubr
            -81 callsubr
            endchar
          </CharString>
          <CharString index="227">
            -242 vlineto
            -39 -384 rlineto
            -190 38 rmoveto
            73 58 53 72 return
          </CharString>
          <CharString index="228">
            -125 0 240 -383 198 0 240 383 rlineto
            return
          </CharString>
          <CharString index="229">
            25 27 -8 -14 38 vhcurveto
            32 -13 rlineto
            -17 44 43 -12 49 hhcurveto
            return
          </CharString>
          <CharString index="230">
            1859 rmoveto
            143 vlineto
            -624 -140 rlineto
            -82 vlineto
            return
          </CharString>
          <CharString index="231">
            1545 rmoveto
            608 -94 0 98 -608 164 rlineto
            return
          </CharString>
          <CharString index="232">
            140 130 66 127 127 -23 callsubr
            return
          </CharString>
          <CharString index="233">
            -25 -40 -39 -37 -25 -83 -20 hvcurveto
            85 -61 rlineto
            122 32 return
          </CharString>
          <CharString index="234">
            1908 rmoveto
            -104 -76 -41 -40 -41 hvcurveto
            -72 vlineto
            18 return
          </CharString>
          <CharString index="235">
            83 callsubr
            -57 -53 -71 -71 57 -52 70 hvcurveto
            return
          </CharString>
          <CharString index="236">
            89 37 callsubr
            -629 -97 vlineto
            140 return
          </CharString>
          <CharString index="237">
            -24 14 22 -30 hvcurveto
            -30 23 rlineto
            37 -53 -45 25 return
          </CharString>
          <CharString index="238">
            -40 hvcurveto
            -72 vlineto
            18 27 50 17 54 hhcurveto
            67 39 return
          </CharString>
          <CharString index="239">
            -3 callsubr
            116 0 -223 345 return
          </CharString>
          <CharString index="240">
            1249 902 hmoveto
            144 callsubr
            return
          </CharString>
          <CharString index="241">
            1109 vlineto
            85 19 17 140 17 vhcurveto
            97 return
          </CharString>
          <CharString index="242">
            545 97 vlineto
            -125 13 -17 15 65 vvcurveto
            return
          </CharString>
          <CharString index="243">
            36 7 35 hhcurveto
            63 -1 49 -26 -47 vvcurveto
            -50 return
          </CharString>
          <CharString index="244">
            -33 hvcurveto
            -95 vlineto
            -34 47 75 -21 93 hhcurveto
            endchar
          </CharString>
          <CharString index="245">
            vhcurveto
            334 19 rmoveto
            333 121 268 return
          </CharString>
          <CharString index="246">
            rmoveto
            -323 186 -195 228 153 return
          </CharString>
          <CharString index="247">
            rmoveto
            181 145 94 174 44 hvcurveto
            -166 81 179 -102 186 hhcurveto
            179 144 60 90 77 hvcurveto
            96 vlineto
            -52 -57 -100 -32 -93 hhcurveto
            -225 -150 143 236 -21 hvcurveto
            660 hlineto
            3 22 1 30 30 vvcurveto
            271 -161 169 -276 -133 -118 -50 -87 -73 vhcurveto
            90 -56 -110 47 -164 hhcurveto
            -244 -177 -108 -132 -74 57 -55 79 84 62 58 75 35 -15 31 -23 22 hvcurveto
            13 36 41 6 47 hhcurveto
            147 88 -79 -165 hvcurveto
            -56 vlineto
            -215 -37 rlineto
            -289 -52 -133 -109 -170 vvcurveto
            -166 133 -100 179 vhcurveto
            790 934 rmoveto
            127 64 -96 -178 hvcurveto
            -3 0 -3 -3 vvcurveto
            -412 hlineto
            192 14 88 91 119 hhcurveto
            -673 -785 rmoveto
            -97 -61 58 98 102 67 65 197 37 hvcurveto
            102 18 rlineto
            -128 vlineto
            -174 -95 -76 -113 vhcurveto
            endchar
          </CharString>
          <CharString index="248">
            rmoveto
            -1070 hlineto
            -573 -1150 -78 -160 -40 -24 -124 -13 rlinecurve
            -97 496 97 vlineto
            -142 19 -21 40 67 141 rrcurveto
            124 258 463 0 4 -339 1 -87 -17 -17 -142 -15 rlinecurve
            -97 1105 vlineto
            11 430 rlineto
            -91 hlineto
            -51 -273 -57 -25 -266 -11 rrcurveto
            -208 -9 -7 571 rlineto
            198 hlineto
            69 25 -29 -171 31 hvcurveto
            86 hlineto
            -6 510 rlineto
            -85 hlineto
            -173 -32 -22 -26 -69 hhcurveto
            -197 hlineto
            -6 538 200 -8 229 -10 63 -36 55 -216 rlinecurve
            91 hlineto
            -1002 270 rmoveto
            81 hlineto
            8 -658 rlineto
            -405 hlineto
            endchar
          </CharString>
          <CharString index="249">
            rmoveto
            323 -186 195 -228 -153 -132 -75 -109 -54 vhcurveto
            174 vlineto
            -415 -74 callsubr
            10 -15 -56 vvcurveto
            -1056 vlineto
            -65 -17 -15 -125 -13 vhcurveto
            -97 580 97 vlineto
            -141 14 -18 14 78 vvcurveto
            337 vlineto
            -58 57 104 -45 111 hhcurveto
            265 210 213 332 hvcurveto
            -288 -23 rmoveto
            -245 -111 -142 -156 -93 -71 40 50 -28 vhcurveto
            574 vlineto
            64 33 73 38 90 hhcurveto
            158 105 -139 -240 hvcurveto
            endchar
          </CharString>
          <CharString index="250">
            rmoveto
            102 76 72 143 hvcurveto
            -108 hlineto
            -50 -25 -22 -40 -25 -27 8 14 -37 vhcurveto
            -32 13 rlineto
            18 -44 -44 12 -49 hhcurveto
            -101 -77 -72 -142 hvcurveto
            108 hlineto
            50 25 21 40 25 27 -7 -15 37 vhcurveto
            33 -13 rlineto
            -17 44 43 -13 49 hhcurveto
            -132 -1188 -98 callsubr
            -101 callsubr
            -99 callsubr
          </CharString>
          <CharString index="251">
            347 91 hlineto
            -70 18 -48 39 -89 156 rrcurveto
            -217 370 52 47 178 158 49 25 115 16 rlinecurve
            97 -486 -97 vlineto
            138 -16 12 -30 -103 -102 -167 -170 rcurveline
            -127 894 hlineto
            -58 callsubr
            -85 callsubr
            -81 callsubr
            305 131 vlineto
            return
          </CharString>
          <CharString index="252">
            406 213 vlineto
            326 -622 rlineto
            348 91 hlineto
            -61 16 -45 36 -116 214 rrcurveto
            -178 337 178 50 114 129 -2 176 rlinecurve
            -306 -22 rmoveto
            -188 -126 -96 -220 -7 vhcurveto
            -125 -3 0 599 107 -3 rlineto
            243 -8 121 -107 -187 vvcurveto
            return
          </CharString>
          <CharString index="253">
            1958 rmoveto
            -75 -71 -24 -28 -41 hvcurveto
            -67 vlineto
            13 29 52 13 48 hhcurveto
            68 36 -22 -34 -33 -35 104 callgsubr
            -96 45 -111 vhcurveto
            -567 -469 rmoveto
            97 callgsubr
            return
          </CharString>
          <CharString index="254">
            395 vlineto
            327 532 91 145 31 24 118 16 rlinecurve
            97 -476 -97 vlineto
            157 -17 6 -33 -75 -134 rrcurveto
            -240 -421 -248 421 -78 133 9 34 156 17 rlinecurve
            97 -652 -97 vlineto
            119 -16 31 -28 88 -141 rrcurveto
            return
          </CharString>
          <CharString index="255">
            96 vlineto
            -52 -60 -102 -32 -93 hhcurveto
            -223 -158 154 256 228 128 134 169 50 42 -7 -16 34 hvcurveto
            -43 -22 -29 -46 -54 vvcurveto
            -77 61 -59 79 78 63 58 88 144 -124 120 -251 -293 -254 -201 -340 return
          </CharString>
          <CharString index="256">
            132 75 107 53 vhcurveto
            -172 vlineto
            416 49 0 88 -74 19 rlineto
            -58 15 -10 15 57 vvcurveto
            1266 vlineto
            -58 callsubr
            -313 vlineto
            59 -58 -103 44 -111 hhcurveto
            -265 -210 -213 -332 hvcurveto
            return
          </CharString>
          <CharString index="257">
            1468 rmoveto
            60 48 44 59 60 -48 45 -60 hvcurveto
            -13 hlineto
            -60 -47 -45 -60 -59 47 -44 60 hvcurveto
            374 hmoveto
            60 47 44 59 60 -47 45 -60 hvcurveto
            -13 hlineto
            -60 -48 -45 -60 -59 48 -44 60 hvcurveto
            return
          </CharString>
          <CharString index="258">
            rlineto
            372 91 hlineto
            -77 23 -45 47 -133 216 rrcurveto
            -317 516 201 221 160 174 50 37 135 22 rlinecurve
            97 -535 -97 vlineto
            155 -13 20 -38 -100 -124 -304 return
          </CharString>
          <CharString index="259">
            -72 callgsubr
            12 -38 vhcurveto
            -34 11 rlineto
            16 -45 -44 10 -50 hhcurveto
            -104 -79 -62 -121 hvcurveto
            110 hlineto
            43 27 19 40 26 27 -7 -13 39 vhcurveto
            33 -10 rlineto
            -15 46 43 -11 51 hhcurveto
            endchar
          </CharString>
          <CharString index="260">
            1469 534 216 rmoveto
            469 156 vlineto
            414 -685 151 callsubr
            -372 rcurveline
            -152 427 hlineto
            101 callsubr
            -107 callsubr
            -68 callsubr
            return
          </CharString>
          <CharString index="261">
            62 -624 rmoveto
            182 hlineto
            925 1444 rlineto
            -183 hlineto
            -976 -728 10 callgsubr
            1209 -734 rmoveto
            -59 callgsubr
            -191 -206 -66 callgsubr
            return
          </CharString>
          <CharString index="262">
            1431 1311 1049 rmoveto
            242 -1 -193 153 -392 hhcurveto
            -661 -89 callsubr
            -107 callsubr
            -68 callsubr
            145 callsubr
            return
          </CharString>
          <CharString index="263">
            13 -38 vhcurveto
            -34 10 rlineto
            16 -45 -44 10 -50 hhcurveto
            -104 -79 -61 -122 hvcurveto
            110 hlineto
            43 27 19 40 26 27 -7 -12 39 vhcurveto
            33 -11 rlineto
            -16 46 43 -10 51 hhcurveto
            return
          </CharString>
          <CharString index="264">
            rmoveto
            179 145 88 168 108 -76 87 -128 23 hvcurveto
            106 21 71 69 91 vvcurveto
            109 -103 74 -153 -159 -109 -87 -124 -44 vhcurveto
            60 -32 rlineto
            return
          </CharString>
          <CharString index="265">
            202 134 101 137 79 -47 48 -71 -68 -46 -49 -62 -44 25 -38 36 -16 hvcurveto
            -30 -42 -58 -16 -66 hhcurveto
            -66 -58 16 30 -41 hvcurveto
            36 16 return
          </CharString>
          <CharString index="266">
            28 49 17 54 hhcurveto
            67 40 -27 -44 -44 -42 -39 -95 -63 hvcurveto
            102 hlineto
            158 64 58 56 73 vvcurveto
            84 -78 58 -120 vhcurveto
            return
          </CharString>
          <CharString index="267">
            -32 -40 hhcurveto
            -26 -24 14 21 -29 hvcurveto
            -29 22 rlineto
            36 -50 -44 24 -60 hhcurveto
            -99 -81 -78 -201 hvcurveto
            103 hlineto
            89 2 20 32 return
          </CharString>
          <CharString index="268">
            1547 rmoveto
            -212 -119 -146 -160 -21 1 -21 3 -18 hvcurveto
            111 9 hlineto
            96 79 75 137 return
          </CharString>
          <CharString index="269">
            27 152 5 rrcurveto
            208 7 -546 -821 rlineto
            -87 874 vlineto
            7 336 rlineto
            -91 hlineto
            -42 -187 return
          </CharString>
          <CharString index="270">
            2 337 rlineto
            288 113 -288 hlineto
            1 178 -279 -35 rlineto
            -143 -142 vlineto
            endchar
          </CharString>
          <CharString index="271">
            1839 rmoveto
            623 -80 0 83 -623 140 rlineto
            -493 vmoveto
            97 callgsubr
            return
          </CharString>
          <CharString index="272">
            vvcurveto
            126 -99 96 -158 -169 -102 -93 -129 -44 vhcurveto
            60 -28 rlineto
            70 32 61 45 return
          </CharString>
          <CharString index="273">
            1214 rmoveto
            85 68 62 86 84 -68 62 -85 -86 -68 -62 -84 -86 68 -62 86 hvcurveto
            return
          </CharString>
          <CharString index="274">
            -23 14 22 -31 hvcurveto
            -30 23 rlineto
            37 -53 -45 25 -1 callsubr
            110 hlineto
            91 return
          </CharString>
          <CharString index="275">
            1562 rmoveto
            -119 -87 -46 -47 -47 hvcurveto
            -86 vlineto
            22 31 56 19 60 hhcurveto
            73 return
          </CharString>
          <CharString index="276">
            53 30 70 43 97 hhcurveto
            125 76 -61 callgsubr
            191 callsubr
            endchar
          </CharString>
          <CharString index="277">
            26 38 44 vvcurveto
            62 -47 49 -68 -71 -47 -48 -79 -137 135 -101 202 vhcurveto
            return
          </CharString>
          <CharString index="278">
            vlineto
            -87 -16 -17 -142 -15 vhcurveto
            -97 628 97 vlineto
            -149 15 -20 19 90 vvcurveto
            return
          </CharString>
          <CharString index="279">
            1705 rmoveto
            -77 -73 -27 -33 -41 hvcurveto
            -79 vlineto
            15 28 54 15 49 hhcurveto
            69 return
          </CharString>
          <CharString index="280">
            26 21 39 25 27 -7 -15 38 vhcurveto
            32 -13 rlineto
            -17 44 43 -13 49 hhcurveto
            endchar
          </CharString>
          <CharString index="281">
            hhcurveto
            -87 callgsubr
            hvcurveto
            334 19 rmoveto
            333 121 268 290 return
          </CharString>
          <CharString index="282">
            1097 vlineto
            204 -6 227 -7 70 -40 51 -215 rlinecurve
            91 hlineto
            endchar
          </CharString>
          <CharString index="283">
            92 rmoveto
            -45 callgsubr
            53 -110 -225 -223 -49 -97 -85 hvcurveto
            return
          </CharString>
          <CharString index="284">
            65 1205 rmoveto
            142 -1015 hlineto
            -65 -18 -15 -124 -13 vhcurveto
            -97 return
          </CharString>
          <CharString index="285">
            32 41 hhcurveto
            28 23 -13 -23 31 hvcurveto
            30 -22 rlineto
            -38 53 44 -24 62 hhcurveto
            return
          </CharString>
          <CharString index="286">
            -216 76 -177 122 -129 vhcurveto
            -128 -140 87 -82 130 143 rlineto
            -98 130 163 -53 173 hhcurveto
            461 298 331 423 216 -76 178 -122 128 hvcurveto
            128 141 -87 81 -130 -143 rlineto
            98 -130 -163 53 -174 174 callsubr
            136 109 -74 -118 75 vhcurveto
            -675 -739 rlineto
            -36 97 -20 113 120 vvcurveto
            844 -36 rmoveto
            -333 -120 -268 -291 -136 -109 74 118 -75 vhcurveto
            674 739 rlineto
            37 -96 20 -114 -120 vvcurveto
            endchar
          </CharString>
          <CharString index="287">
            rmoveto
            -296 158 -162 205 170 120 114 161 50 vhcurveto
            38 -152 111 -124 193 1 rrcurveto
            235 1 160 199 327 vvcurveto
            311 -137 225 -165 -109 -66 -101 -126 42 vhcurveto
            165 -39 118 -172 -190 vvcurveto
            -157 -82 -102 -113 -131 -74 128 272 vhcurveto
            182 -248 -185 vlineto
            -292 -77 -105 -108 -109 -60 103 211 225 73 170 116 110 vhcurveto
            -61 65 rlineto
            -254 -98 -160 -231 -273 vvcurveto
            endchar
          </CharString>
          <CharString index="288">
            rmoveto
            318 234 220 316 141 -47 122 -80 90 hvcurveto
            93 99 -83 79 -95 -102 rlineto
            61 -89 -111 35 -125 hhcurveto
            -319 -234 -220 -316 -143 48 -123 82 -90 hvcurveto
            -88 -94 82 -79 92 98 rlineto
            -60 87 111 -34 124 hhcurveto
            -251 544 rmoveto
            245 91 146 160 80 69 -44 -79 48 vhcurveto
            -426 -452 rlineto
            -14 53 -8 62 69 vvcurveto
            266 -418 rmoveto
            -80 -68 42 77 -47 hvcurveto
            424 451 rlineto
            14 -52 7 -60 -67 vvcurveto
            -245 -92 -146 -158 vhcurveto
            endchar
          </CharString>
          <CharString index="289">
            rmoveto
            164 106 95 191 93 hvcurveto
            -202 48 73 -78 126 hhcurveto
            77 75 35 58 48 hvcurveto
            90 vlineto
            -11 -16 -25 -8 -27 hhcurveto
            -69 -55 61 276 -75 hvcurveto
            234 533 rlineto
            -273 hlineto
            -19 -94 -27 -106 -29 -105 rrcurveto
            212 -64 -99 117 -214 hhcurveto
            -262 -172 -223 -310 -346 169 -185 213 hvcurveto
            -94 547 rmoveto
            224 74 154 119 117 54 -109 -250 44 vhcurveto
            20 -123 rlineto
            -190 -72 -69 -80 -99 hhcurveto
            -120 -68 163 211 hvcurveto
            endchar
          </CharString>
          <CharString index="290">
            rmoveto
            233 166 81 109 85 hvcurveto
            97 vlineto
            -59 -76 -127 -43 -160 hhcurveto
            -163 -93 52 93 95 98 57 195 hvcurveto
            96 hlineto
            -32 176 rlineto
            -42 hlineto
            -231 -89 43 93 87 83 56 156 75 60 -9 -18 45 hvcurveto
            -22 -21 -14 -31 -34 vvcurveto
            -63 47 -58 79 73 55 57 72 125 -135 106 -293 -315 -158 -126 -169 -159 143 -93 214 -3 vhcurveto
            -231 -6 -150 -86 -149 vvcurveto
            -170 168 -102 260 vhcurveto
            endchar
          </CharString>
          <CharString index="291">
            rmoveto
            93 81 33 45 40 hvcurveto
            96 vlineto
            -16 -18 -28 -11 -36 hhcurveto
            -68 -53 66 114 49 13 54 22 44 hvcurveto
            276 36 193 208 287 vvcurveto
            -101 callsubr
            -300 210 -211 298 -14 vhcurveto
            -82 -76 -60 -95 -97 vvcurveto
            -121 99 -80 117 vhcurveto
            -26 597 rmoveto
            -153 -109 160 3 callgsubr
            endchar
          </CharString>
          <CharString index="292">
            354 624 rmoveto
            179 145 89 167 108 -76 87 -128 23 hvcurveto
            106 22 71 69 90 vvcurveto
            109 -103 75 -153 -159 -109 -88 -124 -44 vhcurveto
            60 -32 rlineto
            74 36 70 35 81 hhcurveto
            84 50 -41 -65 -75 -77 -44 -171 -16 hvcurveto
            -76 vlineto
            4 19 28 3 24 hhcurveto
            113 80 -60 -101 -94 -73 -50 -89 -43 -36 11 16 -25 hvcurveto
            22 15 16 25 30 vvcurveto
            48 -38 36 -48 -50 -37 -38 -50 -102 112 -80 163 vhcurveto
            return
          </CharString>
          <CharString index="293">
            359 242 222 364 3 vhcurveto
            8 822 rlineto
            -1 10 11 -1 10 hhcurveto
            162 87 70 117 95 -62 92 -80 56 hvcurveto
            -96 hlineto
            21 -29 15 -59 -55 vvcurveto
            -119 -1 -74 -99 -192 hhcurveto
            -139 -97 hlineto
            160 -22 16 -18 -93 vvcurveto
            4 -643 rlineto
            -277 2 -141 -139 -232 hhcurveto
            -221 -166 139 263 hvcurveto
            657 vlineto
            93 20 18 155 22 vhcurveto
            97 -634 -97 vlineto
            137 -21 21 -19 -93 vvcurveto
            return
          </CharString>
          <CharString index="294">
            139 -122 205 168 118 78 98 57 vhcurveto
            -166 vlineto
            422 49 0 88 -78 19 rlineto
            -60 16 -10 14 57 vvcurveto
            718 vlineto
            -2 14 15 -1 16 hhcurveto
            123 82 61 111 hvcurveto
            2 89 -65 97 -85 55 rrcurveto
            -95 hlineto
            19 -27 16 -56 -56 vvcurveto
            -132 -81 -72 -251 -24 vhcurveto
            -137 -13 0 -87 77 -20 rlineto
            60 -15 11 -14 -56 vvcurveto
            -551 vlineto
            -53 -32 -70 -43 -93 hhcurveto
            -131 -77 79 148 hvcurveto
            return
          </CharString>
          <CharString index="295">
            193 -88 160 -160 83 hvcurveto
            -11 43 49 -6 47 hhcurveto
            151 98 69 113 1 hvcurveto
            1 92 -64 97 -83 55 rrcurveto
            -96 hlineto
            20 -29 16 -59 -54 vvcurveto
            -117 -1 -73 -84 -131 -92 -70 24 -130 hhcurveto
            -305 -230 -226 -311 -314 212 -212 329 -32 callgsubr
            254 251 90 140 157 152 109 -159 -255 -251 -89 -140 -157 hvcurveto
            return
          </CharString>
          <CharString index="296">
            rmoveto
            -89 71 -65 100 153 114 111 247 132 vhcurveto
            462 873 58 110 25 21 132 16 rlinecurve
            97 -490 -97 vlineto
            178 -20 2 -12 -57 -116 rrcurveto
            -278 -577 -310 577 -61 113 7 15 177 20 rlinecurve
            97 -667 -97 vlineto
            132 -16 21 -22 62 -109 rrcurveto
            483 -857 -52 -106 -47 -72 -53 -41 rlinecurve
            81 -5 -63 64 -78 hhcurveto
            -82 -66 -65 -81 hvcurveto
            endchar
          </CharString>
          <CharString index="297">
            287 hlineto
            129 -6 626 -1 vvcurveto
            76 33 70 46 93 hhcurveto
            138 67 -72 -232 -327 -7 -413 -9 -292 hvcurveto
            287 1105 hlineto
            295 -151 100 -199 -173 -117 -87 -109 -50 vhcurveto
            121 -14 -79 66 -116 hhcurveto
            -84 -81 -33 -38 -45 hvcurveto
            -94 vlineto
            4 12 19 4 22 hhcurveto
            88 37 -43 -119 -3 hvcurveto
            endchar
          </CharString>
          <CharString index="298">
            526 97 vlineto
            -109 12 -15 14 61 vvcurveto
            547 vlineto
            23 0 22 -3 18 vhcurveto
            48 34 68 36 93 hhcurveto
            129 78 -61 callgsubr
            544 97 vlineto
            -124 13 -18 15 65 vvcurveto
            513 vlineto
            216 -140 121 -210 -170 -124 -83 -96 -54 vhcurveto
            115 -44 -119 64 -159 hhcurveto
            -167 -121 -82 -94 -53 hvcurveto
            return
          </CharString>
          <CharString index="299">
            rmoveto
            688 vlineto
            282 -5 0 132 -282 -6 rlineto
            169 vlineto
            153 52 60 79 vhcurveto
            3 3 0 3 hhcurveto
            -11 -17 -6 -20 -22 vvcurveto
            -66 48 -47 65 61 51 48 65 99 -93 76 -165 -212 -155 -137 -271 vhcurveto
            -87 vlineto
            -144 -51 rlineto
            -79 142 -695 -56 callsubr
            -77 callsubr
            endchar
          </CharString>
          <CharString index="300">
            686 vlineto
            349 275 150 274 hvcurveto
            -382 636 rmoveto
            -155 -105 -96 -198 vhcurveto
            -155 523 hlineto
            127 -4 rlineto
            231 -7 100 -98 -163 vvcurveto
            62 -655 rmoveto
            -196 -155 -86 -238 -7 vhcurveto
            -127 -4 rlineto
            586 155 vlineto
            235 130 -102 -191 hvcurveto
            return
          </CharString>
          <CharString index="301">
            rmoveto
            181 -128 130 -324 vhcurveto
            -184 185 hlineto
            78 18 14 140 14 vhcurveto
            97 -579 -97 vlineto
            16 callsubr
            633 vlineto
            245 179 121 197 hvcurveto
            -520 199 rmoveto
            154 84 -73 -129 -131 -102 -64 -139 -5 hvcurveto
            -113 -3 rlineto
            405 vlineto
            endchar
          </CharString>
          <CharString index="302">
            1304 -743 rmoveto
            13 430 rlineto
            -90 hlineto
            -56 -273 -80 -26 -265 -9 rrcurveto
            -321 -10 801 1241 rlineto
            91 -1118 vlineto
            -11 -382 rlineto
            91 hlineto
            46 213 49 39 243 8 rrcurveto
            357 10 -799 -1241 rlineto
            -91 vlineto
            -496 725 9 callgsubr
            endchar
          </CharString>
          <CharString index="303">
            65 18 15 124 13 vhcurveto
            97 -542 -97 vlineto
            107 -12 14 -14 -62 vvcurveto
            -720 -369 720 vlineto
            62 15 14 106 12 vhcurveto
            97 -521 -97 vlineto
            106 -12 15 -14 -62 vvcurveto
            -720 -369 720 vlineto
            62 14 14 107 12 vhcurveto
            97 -542 26 callsubr
            -40 callgsubr
            return
          </CharString>
          <CharString index="304">
            rmoveto
            301 234 216 316 315 -206 216 -320 -309 -234 -216 -316 -315 206 -216 328 hvcurveto
            9 129 rmoveto
            -154 -95 163 255 244 87 143 153 146 95 -162 -256 -244 -87 -143 -145 hvcurveto
            endchar
          </CharString>
          <CharString index="305">
            418 -1152 249 0 419 1147 59 160 24 24 129 16 rlinecurve
            97 -489 -97 vlineto
            159 -21 19 -27 -51 -149 rrcurveto
            -309 -904 -312 905 -51 148 20 27 159 21 rlinecurve
            97 -654 -97 vlineto
            125 -16 29 -24 57 -155 rrcurveto
            return
          </CharString>
          <CharString index="306">
            378 rlineto
            -77 hlineto
            -65 -161 -162 -44 -248 -3 rrcurveto
            105 vlineto
            292 43 232 212 327 vvcurveto
            355 -296 262 -438 -451 -284 -269 -364 -314 231 -211 294 -41 vhcurveto
            -105 vlineto
            -245 3 -160 40 -72 165 rrcurveto
            -77 hlineto
            return
          </CharString>
          <CharString index="307">
            -443 322 -285 381 -23 vhcurveto
            -83 -72 -60 -95 -92 vvcurveto
            -126 98 -76 125 90 78 31 45 40 vhcurveto
            95 vlineto
            -14 -17 -30 -10 -32 hhcurveto
            -72 -56 69 104 53 14 52 23 37 hvcurveto
            422 31 269 319 402 vvcurveto
            -105 callsubr
            -103 callsubr
          </CharString>
          <CharString index="308">
            302 -754 179 0 302 754 55 136 18 14 99 16 rlinecurve
            97 -409 -97 vlineto
            131 -10 20 -25 -42 -115 rrcurveto
            -183 -494 -184 494 -43 116 22 23 131 11 rlinecurve
            97 -571 -97 vlineto
            99 -19 23 -22 51 -125 rrcurveto
            return
          </CharString>
          <CharString index="309">
            rmoveto
            276 131 60 callgsubr
            -215 346 51 52 184 184 44 27 112 16 rlinecurve
            97 -467 -97 vlineto
            127 -15 19 -40 -106 -112 -171 -181 rcurveline
            -129 260 hlineto
            -2 callsubr
            119 callsubr
          </CharString>
          <CharString index="310">
            -254 -892 -259 888 -43 150 12 25 157 21 rlinecurve
            97 -625 -33 callgsubr
            -253 -894 -259 890 -43 150 11 25 157 21 rlinecurve
            97 -644 -97 vlineto
            124 -15 33 -23 50 -157 rrcurveto
            return
          </CharString>
          <CharString index="311">
            -83 vlineto
            353 -257 rmoveto
            129 83 46 69 69 -83 45 -129 hvcurveto
            -84 hlineto
            -128 -85 -45 -69 -69 85 -46 128 hvcurveto
            71 72 rmoveto
            -59 hlineto
            -42 -24 17 26 25 24 17 42 hvcurveto
            59 hlineto
            43 23 -17 -25 -26 -23 -17 -43 hvcurveto
            return
          </CharString>
          <CharString index="312">
            1460 1374 424 rmoveto
            219 -172 123 -253 23 vhcurveto
            198 23 152 105 177 vvcurveto
            217 -195 133 -354 vhcurveto
            -686 -89 callsubr
            -107 callsubr
            193 callsubr
            return
          </CharString>
          <CharString index="313">
            2001 rmoveto
            -80 -73 -23 -28 -44 hvcurveto
            -67 vlineto
            12 30 54 14 51 hhcurveto
            70 39 -22 -34 -33 -38 -22 -85 -17 hvcurveto
            87 -52 rlineto
            125 27 79 43 79 vvcurveto
            79 -99 44 -116 vhcurveto
            7 -477 -17 callsubr
            return
          </CharString>
          <CharString index="314">
            -491 rmoveto
            87 89 25 38 41 hvcurveto
            95 vlineto
            -15 -20 -35 -12 -43 hhcurveto
            -60 -53 37 76 81 52 76 157 126 hvcurveto
            -109 -1 rlineto
            -241 -137 -76 -108 -105 vvcurveto
            -112 91 -64 120 vhcurveto
            endchar
          </CharString>
          <CharString index="315">
            96 vlineto
            -52 -60 -100 -32 -94 hhcurveto
            -227 -151 141 232 -22 hvcurveto
            676 hlineto
            3 19 2 32 32 vvcurveto
            274 -164 170 -287 -303 -213 -217 -18 callgsubr
          </CharString>
          <CharString index="316">
            434 223 vlineto
            71 25 -27 -172 29 hvcurveto
            86 510 -86 hlineto
            -174 -34 -22 -25 -69 hhcurveto
            -223 551 hlineto
            226 -7 231 -7 64 -39 51 -217 rlinecurve
            91 hlineto
            endchar
          </CharString>
          <CharString index="317">
            368 234 225 361 3 vhcurveto
            5 662 1 93 18 20 140 17 rlinecurve
            97 -477 -97 vlineto
            152 -16 16 -21 1 -96 5 -634 rcurveline
            -17 callgsubr
            return
          </CharString>
          <CharString index="318">
            rmoveto
            -117 130 -81 169 221 callsubr
            -169 -130 -79 -118 vhcurveto
            188 hmoveto
            61 49 39 62 61 49 -39 -61 -60 -49 -41 -61 -62 -49 41 60 vhcurveto
            endchar
          </CharString>
          <CharString index="319">
            268 1475 rmoveto
            -78 -55 -52 -80 hvcurveto
            -1 -54 12 -41 26 -121 rrcurveto
            58 -275 76 0 58 275 rlineto
            26 120 12 42 54 vvcurveto
            80 -1 -55 52 -78 hhcurveto
            return
          </CharString>
          <CharString index="320">
            203 140 115 149 87 -50 50 -77 -71 -48 -54 -66 -52 33 -45 44 -13 hvcurveto
            -37 -41 -61 -21 -72 hhcurveto
            -73 -60 21 37 -41 hvcurveto
            44 13 33 45 52 vvcurveto
            66 return
          </CharString>
          <CharString index="321">
            -320 -10 800 1241 rlineto
            91 -1118 vlineto
            -10 -382 rlineto
            90 hlineto
            46 213 49 39 243 8 rrcurveto
            358 10 -800 -1241 rlineto
            -91 vlineto
            return
          </CharString>
          <CharString index="322">
            142 66 53 -15 -24 40 vhcurveto
            -36 -22 -24 -42 -48 vvcurveto
            -78 59 -57 78 77 64 58 81 169 -182 103 -224 -276 -227 -143 -268 return
          </CharString>
          <CharString index="323">
            81 hhcurveto
            84 50 -41 -66 -74 -77 -44 -171 -16 hvcurveto
            -76 vlineto
            4 19 28 2 24 hhcurveto
            113 80 -59 -102 -93 -73 -50 -89 -43 -36 10 17 -25 hvcurveto
            22 return
          </CharString>
          <CharString index="324">
            rmoveto
            -119 117 -83 152 152 117 83 119 119 -117 83 -152 -152 -117 -83 -119 vhcurveto
            169 56 callgsubr
            return
          </CharString>
          <CharString index="325">
            351 370 rlineto
            14 -296 vlineto
            -176 -384 rlineto
            return
          </CharString>
          <CharString index="326">
            214 2444 -214 hlineto
            410 -2444 rmoveto
            return
          </CharString>
          <CharString index="327">
            169 130 90 131 130 -130 91 -169 return
          </CharString>
          <CharString index="328">
            168 130 81 117 118 -130 79 -168 return
          </CharString>
          <CharString index="329">
            128 -4 rlineto
            327 -11 211 -232 -360 vvcurveto
            return
          </CharString>
          <CharString index="330">
            110 129 138 19 -2 17 -5 callsubr
            return
          </CharString>
          <CharString index="331">
            96 vlineto
            -21 -36 -54 -17 -55 hhcurveto
            -103 -71 57 170 hvcurveto
            return
          </CharString>
          <CharString index="332">
            18 1 21 21 vvcurveto
            160 -119 146 -212 vhcurveto
            return
          </CharString>
          <CharString index="333">
            -18 3 -16 hvcurveto
            103 8 hlineto
            85 72 67 123 122 return
          </CharString>
          <CharString index="334">
            -27 -220 -197 -316 vvcurveto
            -312 217 -196 return
          </CharString>
          <CharString index="335">
            -91 hlineto
            11 -326 97 -71 164 -44 160 -1 rlinecurve
            return
          </CharString>
          <CharString index="336">
            -91 hlineto
            11 -326 97 -71 163 -44 160 -1 rlinecurve
            return
          </CharString>
          <CharString index="337">
            vlineto
            369 191 209 246 hvcurveto
            -320 -10 rmoveto
            return
          </CharString>
          <CharString index="338">
            vlineto
            54 32 74 42 101 hhcurveto
            131 81 -78 -143 hvcurveto
            return
          </CharString>
          <CharString index="339">
            vlineto
            54 -1 257 -8 63 -34 42 -227 rlinecurve
            90 hlineto
            return
          </CharString>
          <CharString index="340">
            rlineto
            -114 389 vlineto
            141 vmoveto
            -255 hlineto
            255 return
          </CharString>
        <CharString name=".notdef">
          2048 98 -494 rmoveto
          219 callsubr
          214 2444 -214 hlineto
          409 -2444 rmoveto
          219 callsubr
          219 callsubr
          213 2444 -213 hlineto
          endchar
        </CharString>
        <CharString name=".null">
          0 endchar
        </CharString>
        <CharString name="A">
          1503 1299 292 -102 callsubr
        </CharString>
        <CharString name="AE">
          2006 1869 1444 141 callsubr
        </CharString>
        <CharString name="AEacute">
          2006 1260 -83 callsubr
          -75 callsubr
          728 -120 141 callsubr
        </CharString>
        <CharString name="AEmacron">
          2006 984 -31 callsubr
          885 -319 141 callsubr
        </CharString>
        <CharString name="Aacute">
          1503 731 -83 callsubr
          -75 callsubr
          687 -1272 -102 callsubr
        </CharString>
        <CharString name="Abreve">
          1503 749 14 callsubr
          -5 callsubr
          -14 callsubr
          550 -1296 -102 callsubr
        </CharString>
        <CharString name="Abreveacute">
          1503 1061 -107 callgsubr
          311 -256 -17 callsubr
          550 -1232 -102 callsubr
        </CharString>
        <CharString name="Abrevecyrillic">
          1503 749 1585 rmoveto
          158 callsubr
          170 callsubr
          550 -1293 -102 callsubr
        </CharString>
        <CharString name="Abrevedotbelow">
          1503 749 14 callsubr
          -5 callsubr
          -14 callsubr
          550 -1296 rmoveto
          -18 callsubr
          50 callsubr
          -181 -771 -97 callsubr
          70 callsubr
        </CharString>
        <CharString name="Abrevegrave">
          1503 437 -60 callgsubr
          312 -478 -17 callsubr
          550 -1232 -102 callsubr
        </CharString>
        <CharString name="Abrevehookabove">
          1503 742 206 callsubr
          550 -1232 -102 callsubr
        </CharString>
        <CharString name="Abrevetilde">
          1503 879 1802 -72 callgsubr
          156 callsubr
          -130 -278 -17 callsubr
          550 -1232 -102 callsubr
        </CharString>
        <CharString name="Acaron">
          1503 961 -76 callsubr
          -79 callsubr
          221 -1568 -102 callsubr
        </CharString>
        <CharString name="Acircumflex">
          1503 564 -42 callsubr
          -67 callsubr
          853 -1272 -102 callsubr
        </CharString>
        <CharString name="Acircumflexacute">
          1503 1061 1839 28 callsubr
          -83 vlineto
          -1 -270 rmoveto
          97 callgsubr
          861 -1282 -102 callsubr
        </CharString>
        <CharString name="Acircumflexdotbelow">
          1503 564 -42 callsubr
          -67 callsubr
          853 -1272 rmoveto
          -18 callsubr
          50 callsubr
          -181 -771 -97 callsubr
          70 callsubr
        </CharString>
        <CharString name="Acircumflexgrave">
          1503 437 164 callsubr
          861 -1282 -102 callsubr
        </CharString>
        <CharString name="Acircumflexhookabove">
          1503 1004 146 callsubr
          861 -1282 -102 callsubr
        </CharString>
        <CharString name="Acircumflextilde">
          1503 879 1782 rmoveto
          105 77 -83 callgsubr
          -36 callgsubr
          -442 -293 rmoveto
          97 callgsubr
          861 -1282 -102 callsubr
        </CharString>
        <CharString name="Acyrillic">
          1503 1299 292 -102 callsubr
        </CharString>
        <CharString name="Adblgrave">
          1503 554 17 callsubr
          24 callsubr
          -101 callgsubr
          303 -1272 -102 callsubr
        </CharString>
        <CharString name="Adieresis">
          1503 567 -27 callsubr
          -72 callsubr
          83 callsubr
          -72 callsubr
          368 -1299 -102 callsubr
        </CharString>
        <CharString name="Adieresismacron">
          1503 437 1834 35 callsubr
          147 -398 29 callsubr
          -73 callsubr
          356 hmoveto
          57 44 37 51 50 -44 38 -57 hvcurveto
          -13 hlineto
          -57 -73 callsubr
          385 -1257 -102 callsubr
        </CharString>
        <CharString name="Adotaccent">
          1503 749 -69 callsubr
          550 -1296 -102 callsubr
        </CharString>
        <CharString name="Adotbelow">
          1503 1299 292 rmoveto
          -18 callsubr
          50 callsubr
          -181 -771 -97 callsubr
          70 callsubr
        </CharString>
        <CharString name="Adotmacron">
          1503 437 1809 35 callsubr
          84 callgsubr
          550 -1247 -102 callsubr
        </CharString>
        <CharString name="Agrave">
          1503 791 55 callsubr
          840 -1559 -102 callsubr
        </CharString>
        <CharString name="Ahookabove">
          1503 778 -88 callgsubr
          131 callsubr
          105 callsubr
          521 -1616 -102 callsubr
        </CharString>
        <CharString name="Ainvertedbreve">
          1503 749 -99 callgsubr
          -54 callgsubr
          550 -1615 -102 callsubr
        </CharString>
        <CharString name="Alphagreek">
          1503 1299 292 -102 callsubr
        </CharString>
        <CharString name="Alphatonosgreek">
          1503 1299 292 rmoveto
          -18 callsubr
          653 97 vlineto
          -125 16 -28 24 -58 155 rrcurveto
          -1044 768 rmoveto
          201 69 callsubr
          327 -464 rmoveto
          209 602 210 -602 rlineto
          endchar
        </CharString>
        <CharString name="Amacron">
          1503 455 -31 callsubr
          844 -1471 -102 callsubr
        </CharString>
        <CharString name="Aogonek">
          1503 1211 -491 rmoveto
          90 78 31 45 40 hvcurveto
          95 vlineto
          -14 -17 105 callgsubr
          251 97 hlineto
          -125 16 -28 24 -58 155 rrcurveto
          -18 callsubr
          293 vlineto
          -92 -76 -70 -107 -106 vvcurveto
          -126 98 -76 125 vhcurveto
          -751 1087 rmoveto
          209 602 210 -602 rlineto
          endchar
        </CharString>
        <CharString name="Aring">
          1503 480 1760 217 callsubr
          650 -1468 -102 callsubr
        </CharString>
        <CharString name="Aringacute">
          1503 1061 1843 28 callsubr
          204 callsubr
          521 -1286 -102 callsubr
        </CharString>
        <CharString name="Aringbelow">
          1503 1299 292 rmoveto
          -18 callsubr
          50 callsubr
          -480 -896 211 callsubr
        </CharString>
        <CharString name="Atilde">
          1503 877 -30 callsubr
          58 callsubr
          -1 callsubr
          109 hlineto
          91 32 callgsubr
          422 -1276 -102 callsubr
        </CharString>
        <CharString name="B">
          1460 1374 424 92 callsubr
        </CharString>
        <CharString name="Bdotaccent">
          1460 736 -69 callsubr
          638 -1164 92 callsubr
        </CharString>
        <CharString name="Bdotbelow">
          205 callsubr
          -317 -580 -97 callsubr
          -28 callsubr
        </CharString>
        <CharString name="Becyrillic">
          1400 1322 423 rmoveto
          249 -198 162 -385 vhcurveto
          -205 497 hlineto
          233 -7 230 -8 64 -38 52 -214 rlinecurve
          90 hlineto
          -10 380 rlineto
          -1129 -89 callsubr
          -107 callsubr
          677 vlineto
          365 216 169 254 hvcurveto
          -319 -6 rmoveto
          -191 -121 -101 -240 -7 vhcurveto
          -108 -3 0 600 108 -4 rlineto
          236 -8 125 -105 -181 vvcurveto
          endchar
        </CharString>
        <CharString name="Betagreek">
          1460 1374 424 92 callsubr
        </CharString>
        <CharString name="Blinebelow">
          205 callsubr
          -621 -777 -80 callsubr
        </CharString>
        <CharString name="C">
          1467 99 719 -13 callsubr
          -35 callsubr
        </CharString>
        <CharString name="Cacute">
          1467 835 -83 callsubr
          -86 callgsubr
          -616 -845 -13 callsubr
          -35 callsubr
        </CharString>
        <CharString name="Ccaron">
          1467 1064 1860 rmoveto
          -198 -149 -79 callsubr
          -1083 -1141 -13 callsubr
          -35 callsubr
        </CharString>
        <CharString name="Ccedilla">
          1467 99 719 rmoveto
          -440 315 -279 391 -29 vhcurveto
          -91 -113 rlineto
          -82 vlineto
          2 100 callsubr
          125 callsubr
          57 71 rlineto
          181 9 173 52 86 63 10 341 rcurveline
          -34 callgsubr
          -35 callsubr
        </CharString>
        <CharString name="Ccedillaacute">
          1467 835 -83 callsubr
          -86 callgsubr
          -616 -845 rmoveto
          -440 315 -279 391 -29 vhcurveto
          -91 -113 rlineto
          -82 vlineto
          2 100 callsubr
          125 callsubr
          57 71 rlineto
          181 9 173 52 86 63 10 341 rcurveline
          -34 callgsubr
          -35 callsubr
        </CharString>
        <CharString name="Ccircumflex">
          1467 667 107 callsubr
          -451 -845 -13 callsubr
          -35 callsubr
        </CharString>
        <CharString name="Cdotaccent">
          1467 853 -69 callsubr
          -754 -869 -13 callsubr
          -35 callsubr
        </CharString>
        <CharString name="Checyrillic">
          1653 1420 -55 callsubr
          37 callsubr
          -629 -97 vlineto
          142 -15 16 -17 -87 vvcurveto
          -492 vlineto
          -26 -75 -103 -15 -107 hhcurveto
          -225 -103 110 233 hvcurveto
          190 vlineto
          87 16 17 143 15 vhcurveto
          97 -618 -97 vlineto
          142 -15 16 -17 -87 vvcurveto
          -193 vlineto
          -328 204 -156 334 146 140 29 36 90 vhcurveto
          -381 vlineto
          -97 -22 -24 -164 -17 vhcurveto
          -97 657 -28 callgsubr
        </CharString>
        <CharString name="Chigreek">
          1452 285 298 39 callsubr
        </CharString>
        <CharString name="D">
          1619 23 callsubr
          endchar
        </CharString>
        <CharString name="Dbar">
          1619 64 683 rmoveto
          169 -462 hlineto
          -89 -17 -19 -152 -16 vhcurveto
          -97 662 vlineto
          435 371 292 451 446 -344 255 -475 hvcurveto
          -649 -89 callsubr
          -426 -169 vlineto
          1136 -72 rmoveto
          -371 -212 -228 -326 -10 vhcurveto
          -128 -4 rlineto
          571 308 114 -308 535 vlineto
          222 callsubr
          endchar
        </CharString>
        <CharString name="Dcaron">
          1619 980 -76 callsubr
          -79 callsubr
          435 -1117 93 callsubr
          endchar
        </CharString>
        <CharString name="Dcircumflexbelow">
          1619 23 callsubr
          -657 -1198 rmoveto
          202 -38 callgsubr
        </CharString>
        <CharString name="Dcommaaccent">
          1619 23 callsubr
          -477 -1216 22 callsubr
          73 callsubr
          -53 callgsubr
          -69 -58 -52 14 19 21 callsubr
        </CharString>
        <CharString name="Ddotaccent">
          1619 768 -45 callsubr
          -4 callsubr
          764 -845 93 callsubr
          endchar
        </CharString>
        <CharString name="Ddotbelow">
          1619 23 callsubr
          -456 -900 rmoveto
          -72 -59 -53 -72 -72 59 -53 72 -82 callsubr
        </CharString>
        <CharString name="Decyrillic">
          1570 1508 119 rmoveto
          -200 1091 hlineto
          97 21 23 161 17 vhcurveto
          97 -1297 -97 vlineto
          166 -18 25 -15 -6 -128 rrcurveto
          -11 -302 -17 -370 -45 -249 -120 -146 rlinecurve
          -153 hlineto
          -8 -423 rlineto
          102 hlineto
          269 60 99 35 246 hhcurveto
          482 hlineto
          260 84 -52 -252 57 hvcurveto
          102 hlineto
          -509 423 rmoveto
          -649 hlineto
          95 151 43 228 16 386 17 441 rcurveline
          478 hlineto
          endchar
        </CharString>
        <CharString name="Deltagreek">
          1381 42 hmoveto
          1298 151 hlineto
          -525 1293 -248 0 -525 -1292 rlineto
          174 54 rmoveto
          393 1017 392 -1017 rlineto
          endchar
        </CharString>
        <CharString name="Djecyrillic">
          1774 -44 callsubr
          -21 callgsubr
          413 vlineto
          30 53 81 20 87 hhcurveto
          205 124 -123 -262 -268 -107 -201 -193 -142 hvcurveto
          47 -78 rlineto
          333 147 221 254 327 vvcurveto
          320 -205 177 -307 -144 -124 -39 -40 -71 vhcurveto
          574 108 callgsubr
        </CharString>
        <CharString name="Dlinebelow">
          1619 23 callsubr
          -759 -1097 -80 callsubr
        </CharString>
        <CharString name="Dzecyrillic">
          1262 603 -31 86 callsubr
          endchar
        </CharString>
        <CharString name="Dzhecyrillic">
          1707 1474 1223 rmoveto
          129 callsubr
          -16 18 -18 -85 vvcurveto
          -1109 -638 1109 vlineto
          85 19 18 140 16 vhcurveto
          97 -629 -57 callsubr
          -107 callsubr
          572 vlineto
          99 22 -21 -283 45 hvcurveto
          103 hlineto
          283 45 22 21 99 hhcurveto
          572 97 hlineto
          -152 16 -17 19 89 vvcurveto
          endchar
        </CharString>
        <CharString name="E">
          1345 1212 1444 -96 callsubr
        </CharString>
        <CharString name="Eacute">
          1345 672 -83 callsubr
          -75 callsubr
          659 -120 -96 callsubr
        </CharString>
        <CharString name="Ebreve">
          1345 690 14 callsubr
          -5 callsubr
          -14 callsubr
          522 -144 -96 callsubr
        </CharString>
        <CharString name="Ecaron">
          1345 902 -76 callsubr
          -79 callsubr
          193 -416 -96 callsubr
        </CharString>
        <CharString name="Ecedilla">
          1345 666 -491 rmoveto
          125 callsubr
          80 101 481 0 13 430 rlineto
          -38 callsubr
          -11 382 rlineto
          -32 callsubr
          591 vlineto
          -114 -142 rlineto
          -82 vlineto
          2 100 callsubr
          endchar
        </CharString>
        <CharString name="Ecedillabreve">
          1345 690 14 callsubr
          -5 callsubr
          -14 callsubr
          -24 -2079 rmoveto
          125 callsubr
          80 101 481 0 13 430 rlineto
          -38 callsubr
          -11 382 rlineto
          -32 callsubr
          591 vlineto
          -114 -142 rlineto
          -82 vlineto
          2 100 callsubr
          endchar
        </CharString>
        <CharString name="Ecircumflex">
          1345 505 -42 callsubr
          -67 callsubr
          825 -120 -96 callsubr
        </CharString>
        <CharString name="Ecircumflexacute">
          1345 1002 1839 28 callsubr
          -83 vlineto
          -1 -270 rmoveto
          97 callgsubr
          833 -130 -96 callsubr
        </CharString>
        <CharString name="Ecircumflexbelow">
          1345 1212 1444 rmoveto
          -32 callsubr
          30 callsubr
          -38 callsubr
          -724 -1535 -3 callsubr
          87 callgsubr
        </CharString>
        <CharString name="Ecircumflexdotbelow">
          1345 505 -42 callsubr
          -67 callsubr
          825 -120 rmoveto
          -32 callsubr
          30 callsubr
          -38 callsubr
          -522 -1237 -97 callsubr
          -82 callsubr
        </CharString>
        <CharString name="Ecircumflexgrave">
          1345 378 164 callsubr
          833 -130 -96 callsubr
        </CharString>
        <CharString name="Ecircumflexhookabove">
          1345 945 146 callsubr
          833 -130 -96 callsubr
        </CharString>
        <CharString name="Ecircumflextilde">
          1345 820 1782 rmoveto
          105 77 -83 callgsubr
          -36 callgsubr
          -442 -293 rmoveto
          97 callgsubr
          833 -130 -96 callsubr
        </CharString>
        <CharString name="Ecyrillic">
          1494 99 719 -13 callsubr
          -262 -185 236 338 -22 hvcurveto
          637 -6 0 132 -638 -5 rlineto
          325 17 167 218 286 hhcurveto
          62 callgsubr
        </CharString>
        <CharString name="Edblgrave">
          1345 495 17 callsubr
          24 callsubr
          -101 callgsubr
          275 -120 -96 callsubr
        </CharString>
        <CharString name="Edieresis">
          1345 508 -27 callsubr
          -72 callsubr
          83 callsubr
          -72 callsubr
          340 -147 -96 callsubr
        </CharString>
        <CharString name="Edotaccent">
          1345 690 -69 callsubr
          522 -144 -96 callsubr
        </CharString>
        <CharString name="Edotbelow">
          1345 1212 1444 rmoveto
          -32 callsubr
          30 callsubr
          -38 callsubr
          -522 -1237 -97 callsubr
          -82 callsubr
        </CharString>
        <CharString name="Efcyrillic">
          1948 71 716 rmoveto
          -296 284 -182 477 -13 vhcurveto
          -22 vlineto
          -97 -21 -23 -161 -17 vhcurveto
          -97 648 97 vlineto
          -161 17 -21 23 97 vvcurveto
          22 vlineto
          477 13 284 181 303 vvcurveto
          289 -247 195 -514 13 vhcurveto
          22 vlineto
          97 21 23 161 17 vhcurveto
          97 -648 -97 vlineto
          161 -17 21 -23 -97 vvcurveto
          -22 vlineto
          -515 -13 -246 -194 -296 vvcurveto
          1486 7 rmoveto
          -198 -140 -161 -301 -18 vhcurveto
          753 vlineto
          322 -18 119 -161 -197 vvcurveto
          -1166 2 rmoveto
          196 125 160 316 18 vhcurveto
          -753 vlineto
          -307 18 -134 162 199 vvcurveto
          endchar
        </CharString>
        <CharString name="Egrave">
          1345 732 55 callsubr
          812 -407 -96 callsubr
        </CharString>
        <CharString name="Ehookabove">
          1345 719 -88 callgsubr
          131 callsubr
          105 callsubr
          493 -464 -96 callsubr
        </CharString>
        <CharString name="Einvertedbreve">
          1345 690 -99 callgsubr
          -54 callgsubr
          522 -463 -96 callsubr
        </CharString>
        <CharString name="Elcyrillic">
          1566 15 callgsubr
          472 -1104 hlineto
          -90 -20 -19 -149 -15 vhcurveto
          -97 639 97 vlineto
          -149 15 -20 19 90 vvcurveto
          1002 vlineto
          90 20 19 149 15 vhcurveto
          97 -1278 -22 callgsubr
          endchar
        </CharString>
        <CharString name="Emacron">
          1345 396 -31 callsubr
          816 -319 -96 callsubr
        </CharString>
        <CharString name="Emacronacute">
          1345 1002 -107 callgsubr
          -1 -199 35 callsubr
          834 -250 -96 callsubr
        </CharString>
        <CharString name="Emacrongrave">
          1345 378 -60 callgsubr
          -421 vmoveto
          623 113 -623 hlineto
          834 -250 -96 callsubr
        </CharString>
        <CharString name="Emcyrillic">
          1930 583 1444 40 callsubr
        </CharString>
        <CharString name="Encyrillic">
          -9 callsubr
          -65 callsubr
          -54 callsubr
          -50 callsubr
        </CharString>
        <CharString name="Eogonek">
          1345 1062 -491 rmoveto
          91 78 31 45 39 hvcurveto
          95 vlineto
          -14 -16 105 callgsubr
          146 hlineto
          13 430 rlineto
          -38 callsubr
          -11 382 rlineto
          -32 callsubr
          938 vlineto
          -92 -76 -70 -107 -106 vvcurveto
          -126 97 -76 125 vhcurveto
          endchar
        </CharString>
        <CharString name="Epsilongreek">
          1345 1212 1444 -96 callsubr
        </CharString>
        <CharString name="Epsilontonosgreek">
          1687 1554 1444 rmoveto
          -1147 -89 callsubr
          -107 callsubr
          30 callsubr
          -91 hlineto
          -55 82 callgsubr
          70 25 -29 -171 29 hvcurveto
          86 510 -86 hlineto
          -173 -34 -22 -26 -68 hhcurveto
          -247 538 hlineto
          253 -8 229 -7 64 -40 51 -215 rlinecurve
          91 hlineto
          -1444 -2 27 callsubr
        </CharString>
        <CharString name="Ercyrillic">
          1416 1328 1009 42 callsubr
        </CharString>
        <CharString name="Ereversedcyrillic">
          1498 128 92 rmoveto
          -67 96 205 -56 196 hhcurveto
          424 349 283 486 472 -322 265 -451 -214 -183 -48 -64 -93 hvcurveto
          -11 -329 rlineto
          91 hlineto
          231 56 133 76 190 hhcurveto
          273 174 -209 -334 24 hvcurveto
          -637 5 0 -132 638 5 rlineto
          -345 -14 -195 -228 -263 hhcurveto
          -190 -139 69 248 -57 hvcurveto
          -90 hlineto
          endchar
        </CharString>
        <CharString name="Escyrillic">
          1467 99 719 -13 callsubr
          -35 callsubr
        </CharString>
        <CharString name="Etagreek">
          -9 callsubr
          -65 callsubr
          -54 callsubr
          -50 callsubr
        </CharString>
        <CharString name="Etatonosgreek">
          2061 877 216 rmoveto
          462 648 -462 vlineto
          -87 -16 -17 -142 -15 vhcurveto
          -97 629 97 vlineto
          -150 15 -19 19 90 vvcurveto
          1002 vlineto
          90 19 19 150 15 vhcurveto
          97 -629 -97 vlineto
          142 -15 16 -17 -87 vvcurveto
          -431 -648 430 vlineto
          101 callsubr
          -1002 vlineto
          -89 -18 -19 -151 -16 vhcurveto
          -97 629 97 vlineto
          -141 16 -18 18 85 vvcurveto
          -756 844 27 callsubr
        </CharString>
        <CharString name="Etilde">
          1345 818 -30 callsubr
          58 callsubr
          -1 callsubr
          109 hlineto
          91 32 callgsubr
          394 -124 -96 callsubr
        </CharString>
        <CharString name="Etildebelow">
          1345 1212 1444 rmoveto
          -32 callsubr
          30 callsubr
          -38 callsubr
          -399 -1500 26 callgsubr
          -29 22 rlineto
          36 -49 -44 24 -60 hhcurveto
          -99 -82 -46 callgsubr
          -68 callgsubr
        </CharString>
        <CharString name="F">
          1249 1187 1444 rmoveto
          -1123 -89 callsubr
          -107 callsubr
          -22 callsubr
          209 callsubr
        </CharString>
        <CharString name="Fdotaccent">
          1249 690 -45 callsubr
          -4 callsubr
          497 -144 rmoveto
          -1123 -89 callsubr
          -107 callsubr
          -22 callsubr
          209 callsubr
        </CharString>
        <CharString name="G">
          1597 99 719 -19 callsubr
        </CharString>
        <CharString name="Gacute">
          1597 829 -83 callsubr
          -75 callsubr
          -611 -845 -19 callsubr
        </CharString>
        <CharString name="Gammagreek">
          1234 1167 1444 rmoveto
          -1103 -89 callsubr
          -107 callsubr
          -22 callsubr
          175 callsubr
        </CharString>
        <CharString name="Gbreve">
          1597 847 14 callsubr
          -5 callsubr
          -14 callsubr
          -748 -869 -19 callsubr
        </CharString>
        <CharString name="Gcaron">
          1597 1059 -76 callsubr
          -79 callsubr
          -1077 -1141 -19 callsubr
        </CharString>
        <CharString name="Gcircumflex">
          1597 662 -42 callsubr
          -67 callsubr
          -445 -845 -19 callsubr
        </CharString>
        <CharString name="Gcommaaccent">
          1597 99 719 rmoveto
          -464 352 -286 422 212 206 54 76 117 vhcurveto
          388 vlineto
          87 15 16 149 15 vhcurveto
          96 -614 -96 vlineto
          167 -16 15 -15 -86 vvcurveto
          -328 vlineto
          -37 -53 -82 -20 -98 hhcurveto
          -282 -192 268 374 354 169 242 300 196 125 -87 -230 57 hvcurveto
          91 hlineto
          -11 341 rlineto
          65 -91 -178 45 -218 hhcurveto
          -445 -329 -286 -470 hvcurveto
          746 -1210 -77 callgsubr
          -69 -26 -31 -28 -44 callgsubr
          -35 callgsubr
        </CharString>
        <CharString name="Gdotaccent">
          1597 847 -69 callsubr
          -748 -869 -19 callsubr
        </CharString>
        <CharString name="Geacutecyrillic">
          1234 623 -83 callsubr
          -75 callsubr
          663 -120 rmoveto
          -1103 -89 callsubr
          -107 callsubr
          -22 callsubr
          175 callsubr
        </CharString>
        <CharString name="Gecyrillic">
          1234 1167 1444 rmoveto
          -1103 -89 callsubr
          -107 callsubr
          -22 callsubr
          175 callsubr
        </CharString>
        <CharString name="Germandbls">
          1561 534 hmoveto
          1332 vlineto
          201 -7 rlineto
          273 -10 116 -105 -145 vvcurveto
          -128 -88 -82 -147 -20 vhcurveto
          -177 vlineto
          195 -48 123 -118 -174 vvcurveto
          -142 -79 -74 -110 -128 -92 103 179 -30 vhcurveto
          -90 -321 hlineto
          -49 64 129 -44 156 hhcurveto
          216 231 127 278 222 -127 168 -191 68 hvcurveto
          144 21 114 102 144 vvcurveto
          207 -178 137 -411 vhcurveto
          -761 -89 callsubr
          -107 callsubr
          vlineto
          endchar
        </CharString>
        <CharString name="Geupturncyrillic">
          1203 1139 1325 rmoveto
          8 423 rlineto
          -103 hlineto
          -283 -84 -35 -21 -177 hhcurveto
          -684 -89 callsubr
          -107 callsubr
          -22 callsubr
          1090 vlineto
          endchar
        </CharString>
        <CharString name="Gmacron">
          1597 553 -31 callsubr
          -454 -1044 -19 callsubr
        </CharString>
        <CharString name="H">
          -9 callsubr
          -65 callsubr
          -54 callsubr
          -50 callsubr
        </CharString>
        <CharString name="Hacyrillic">
          1452 285 298 39 callsubr
        </CharString>
        <CharString name="Hardsigncyrillic">
          1648 1567 -76 callgsubr
          1 97 21 23 161 17 rrcurveto
          97 -899 vlineto
          -11 -380 rlineto
          91 hlineto
          42 224 60 33 233 7 rrcurveto
          -1098 vlineto
          -95 -21 -21 -159 -17 vhcurveto
          -97 710 230 callsubr
          83 callgsubr
          114 vlineto
          221 134 -114 -211 hvcurveto
          endchar
        </CharString>
        <CharString name="Hbar">
          -9 callsubr
          801 169 113 -169 88 35 callgsubr
          -93 -649 92 vlineto
          101 callsubr
          -88 -169 -113 169 -801 -90 callgsubr
          -68 callsubr
          581 vmoveto
          225 649 -225 vlineto
          endchar
        </CharString>
        <CharString name="Hbrevebelow">
          -9 callsubr
          -65 callsubr
          -54 callsubr
          -68 callsubr
          327 -680 rmoveto
          -9 callgsubr
          -103 vlineto
          -3 -62 callgsubr
        </CharString>
        <CharString name="Hcaron">
          1717 1072 1860 rmoveto
          -198 -149 -79 callsubr
          -656 -1644 66 callsubr
          -65 callsubr
          -54 callsubr
          -50 callsubr
        </CharString>
        <CharString name="Hcedilla">
          -9 callsubr
          -65 callsubr
          -54 callsubr
          264 vlineto
          -114 -142 rlineto
          -26 callgsubr
          34 callgsubr
          75 callsubr
          -107 67 -133 3 hvcurveto
          80 101 rlineto
          244 97 hlineto
          -140 16 -19 18 85 vvcurveto
          endchar
        </CharString>
        <CharString name="Hcircumflex">
          1717 676 -42 callsubr
          296 -204 0 -215 -296 rlineto
          -24 -1348 66 callsubr
          -65 callsubr
          -54 callsubr
          -50 callsubr
        </CharString>
        <CharString name="Hdieresis">
          1717 679 1590 rmoveto
          71 56 53 71 71 -56 52 -71 -70 -56 -52 -71 -71 56 -53 70 hvcurveto
          364 hmoveto
          71 56 53 71 71 -56 52 -71 -70 -57 -52 -71 -71 57 -53 70 hvcurveto
          -509 -1374 66 callsubr
          -65 callsubr
          -54 callsubr
          -50 callsubr
        </CharString>
        <CharString name="Hdotaccent">
          1717 861 1587 rmoveto
          73 58 54 71 72 -58 53 -73 -73 -58 -53 -72 -71 58 -54 73 hvcurveto
          -327 -1371 66 callsubr
          -65 callsubr
          -54 callsubr
          -50 callsubr
        </CharString>
        <CharString name="Hdotbelow">
          -9 callsubr
          -65 callsubr
          -54 callsubr
          -68 callsubr
          327 -391 -97 callsubr
          -28 callsubr
        </CharString>
        <CharString name="I">
          768 534 -55 callsubr
          -21 callsubr
          -107 callsubr
          -87 callsubr
        </CharString>
        <CharString name="IAcyrillic">
          1456 140 1016 rmoveto
          -196 135 -119 163 -39 vhcurveto
          -185 -306 -123 -200 -30 -41 -73 -24 rlinecurve
          -91 323 vlineto
          364 618 rlineto
          194 -402 hlineto
          -85 -16 -18 -142 -16 vhcurveto
          -97 628 97 vlineto
          -149 16 -20 19 89 vvcurveto
          1002 vlineto
          89 20 19 149 16 vhcurveto
          97 -703 vlineto
          -352 -183 -175 -253 hvcurveto
          307 21 rmoveto
          187 110 98 218 6 vhcurveto
          133 4 rlineto
          -602 -126 vlineto
          -196 1 -139 110 196 vvcurveto
          endchar
        </CharString>
        <CharString name="IJ">
          1536 534 -55 callsubr
          -21 callsubr
          -107 callsubr
          68 callsubr
          768 45 rmoveto
          957 vlineto
          89 37 callsubr
          -639 -57 callsubr
          18 callsubr
        </CharString>
        <CharString name="IJacute">
          1536 366 -55 callgsubr
          886 hmoveto
          329 287 rlineto
          10 -75 callsubr
          -480 -1343 -84 callsubr
          -86 callsubr
          -107 callsubr
          68 callsubr
          768 45 rmoveto
          957 vlineto
          89 37 callsubr
          -639 -57 callsubr
          18 callsubr
        </CharString>
        <CharString name="IUcyrillic">
          2361 534 216 rmoveto
          462 231 vlineto
          -443 20 338 -266 386 hhcurveto
          456 296 326 428 hvcurveto
          468 1 -347 284 -398 hhcurveto
          -429 -288 -288 -390 -33 hvcurveto
          -233 430 hlineto
          101 callsubr
          -107 callsubr
          -68 callsubr
          991 -113 rmoveto
          -267 -162 285 352 339 119 262 286 266 164 -285 -352 -1 hvcurveto
          -339 -1 -119 -262 -285 hhcurveto
          endchar
        </CharString>
        <CharString name="Iacute">
          768 366 -55 callgsubr
          287 -1343 -84 callsubr
          -86 callsubr
          -107 callsubr
          -87 callsubr
        </CharString>
        <CharString name="Ibreve">
          768 384 14 callsubr
          -4 16 hvcurveto
          -102 -8 hlineto
          -85 -72 -67 -14 callsubr
          150 -1367 -84 callsubr
          -86 callsubr
          -107 callsubr
          -87 callsubr
        </CharString>
        <CharString name="Icaron">
          768 596 -76 callsubr
          -79 callsubr
          -179 -1639 -84 callsubr
          -86 callsubr
          -107 callsubr
          -87 callsubr
        </CharString>
        <CharString name="Icircumflex">
          768 199 -42 callsubr
          -67 callsubr
          453 -1343 -84 callsubr
          -86 callsubr
          -107 callsubr
          -87 callsubr
        </CharString>
        <CharString name="Icyrillic">
          768 534 -55 callsubr
          -21 callsubr
          -107 callsubr
          -87 callsubr
        </CharString>
        <CharString name="Idblgrave">
          768 189 17 callsubr
          24 callsubr
          -101 callgsubr
          -97 -1343 -84 callsubr
          -86 callsubr
          -107 callsubr
          -87 callsubr
        </CharString>
        <CharString name="Idieresis">
          768 202 -27 callsubr
          -72 callsubr
          128 callsubr
          -32 -1370 -84 callsubr
          -86 callsubr
          -107 callsubr
          -87 callsubr
        </CharString>
        <CharString name="Idieresisacute">
          768 696 -107 callgsubr
          146 -231 29 callsubr
          -46 -38 -50 -51 46 -37 57 hvcurveto
          355 hmoveto
          58 44 37 51 50 -44 38 -58 hvcurveto
          -12 hlineto
          -57 -73 callsubr
          -15 -1328 -84 callsubr
          -86 callsubr
          -107 callsubr
          -87 callsubr
        </CharString>
        <CharString name="Idotaccent">
          768 384 -69 callsubr
          150 -1367 -84 callsubr
          -86 callsubr
          -107 callsubr
          -87 callsubr
        </CharString>
        <CharString name="Idotbelow">
          768 534 -55 callsubr
          -21 callsubr
          -107 callsubr
          68 callsubr
          -150 -396 rmoveto
          -72 -58 -53 -72 -72 58 -53 72 -82 callsubr
        </CharString>
        <CharString name="Iecyrillic">
          1345 1212 1444 -96 callsubr
        </CharString>
        <CharString name="Igrave">
          768 426 55 callsubr
          440 -1630 -84 callsubr
          -86 callsubr
          -107 callsubr
          -87 callsubr
        </CharString>
        <CharString name="Ihookabove">
          768 413 -88 callgsubr
          -41 hvcurveto
          -72 vlineto
          18 28 49 17 55 hhcurveto
          67 39 105 callsubr
          121 -1687 -84 callsubr
          -86 callsubr
          -107 callsubr
          -87 callsubr
        </CharString>
        <CharString name="Iicyrillic">
          1746 534 216 rmoveto
          26 vlineto
          677 782 rlineto
          -808 171 callsubr
          -65 callsubr
          -26 vlineto
          -677 -782 rlineto
          807 vlineto
          101 callsubr
          -107 callsubr
          -50 callsubr
        </CharString>
        <CharString name="Iinvertedbreve">
          768 384 -99 callgsubr
          73 -67 -85 vhcurveto
          -8 102 vlineto
          4 -57 callgsubr
          150 -1686 -84 callsubr
          -86 callsubr
          -107 callsubr
          -87 callsubr
        </CharString>
        <CharString name="Iishortcyrillic">
          1746 874 1585 rmoveto
          158 callsubr
          25 38 44 vvcurveto
          62 -46 49 -68 -71 -47 -48 -79 -137 134 -101 203 vhcurveto
          -340 -1369 rmoveto
          26 vlineto
          677 782 rlineto
          -808 171 callsubr
          -65 callsubr
          -26 vlineto
          -677 -782 rlineto
          807 vlineto
          101 callsubr
          -107 callsubr
          -50 callsubr
        </CharString>
        <CharString name="Imacron">
          768 90 -31 callsubr
          444 -1542 -84 callsubr
          -86 callsubr
          -107 callsubr
          -87 callsubr
        </CharString>
        <CharString name="Iocyrillic">
          1345 508 -27 callsubr
          -72 callsubr
          83 callsubr
          -72 callsubr
          340 -147 -96 callsubr
        </CharString>
        <CharString name="Iogonek">
          768 534 -55 callsubr
          -21 callsubr
          -107 callsubr
          281 vlineto
          -93 -76 -70 -107 -106 vvcurveto
          -126 98 -76 125 90 79 31 45 39 vhcurveto
          95 vlineto
          -14 -16 -29 -10 -34 hhcurveto
          -70 -58 73 108 63 19 61 28 39 hvcurveto
          251 97 hlineto
          -152 16 -18 19 89 vvcurveto
          endchar
        </CharString>
        <CharString name="Iotadieresisgreek">
          768 202 -27 callsubr
          -72 callsubr
          128 callsubr
          -32 -1370 -84 callsubr
          -86 callsubr
          -107 callsubr
          -87 callsubr
        </CharString>
        <CharString name="Iotagreek">
          768 534 -55 callsubr
          -21 callsubr
          -107 callsubr
          -87 callsubr
        </CharString>
        <CharString name="Iotatonosgreek">
          1110 877 -55 callsubr
          37 callsubr
          -639 -57 callsubr
          -107 callsubr
          639 97 vlineto
          -152 16 -17 19 89 vvcurveto
          -756 839 27 callsubr
        </CharString>
        <CharString name="Itilde">
          768 512 -30 callsubr
          58 callsubr
          -62 hhcurveto
          -103 -85 -82 -209 hvcurveto
          110 hlineto
          91 32 callgsubr
          22 -1347 -84 callsubr
          -86 callsubr
          -107 callsubr
          -87 callsubr
        </CharString>
        <CharString name="Itildebelow">
          768 534 -55 callsubr
          -21 callsubr
          -107 callsubr
          68 callsubr
          -26 -659 -100 callgsubr
          -3 -19 160 callsubr
          39 hhcurveto
          27 24 -13 -22 29 hvcurveto
          29 -22 rlineto
          -36 50 44 -24 60 hhcurveto
          endchar
        </CharString>
        <CharString name="J">
          768 534 266 rmoveto
          957 vlineto
          89 -21 callsubr
          18 callsubr
        </CharString>
        <CharString name="Jacute">
          768 365 -83 callsubr
          -75 callsubr
          288 -1298 rmoveto
          957 vlineto
          89 -21 callsubr
          18 callsubr
        </CharString>
        <CharString name="Jcircumflex">
          768 198 62 callsubr
          121 0 -215 297 -205 0 -215 -297 rlineto
          454 -1298 rmoveto
          957 vlineto
          89 -21 callsubr
          18 callsubr
        </CharString>
        <CharString name="Jecyrillic">
          768 534 266 rmoveto
          957 vlineto
          89 -21 callsubr
          18 callsubr
        </CharString>
        <CharString name="K">
          1469 534 216 6 callsubr
        </CharString>
        <CharString name="Kaacutecyrillic">
          1469 785 -49 callsubr
          -131 -1348 6 callsubr
        </CharString>
        <CharString name="Kacute">
          1469 785 -49 callsubr
          -131 -1348 6 callsubr
        </CharString>
        <CharString name="Kacyrillic">
          1469 534 216 6 callsubr
        </CharString>
        <CharString name="Kappagreek">
          1469 534 216 6 callsubr
        </CharString>
        <CharString name="Kcaron">
          1469 1014 -76 callsubr
          67 callsubr
          204 0 216 297 rlineto
          -598 -1644 6 callsubr
        </CharString>
        <CharString name="Kcommaaccent">
          153 callsubr
          274 -707 rmoveto
          161 106 75 117 117 -94 74 -134 -82 -69 33 callsubr
          136 callsubr
          -50 -27 -68 -47 callgsubr
          87 hhcurveto
          endchar
        </CharString>
        <CharString name="Kdotbelow">
          153 callsubr
          295 -391 -97 callsubr
          -28 callsubr
        </CharString>
        <CharString name="Klinebelow">
          153 callsubr
          -9 -588 -80 callsubr
        </CharString>
        <CharString name="L">
          10 callsubr
          endchar
        </CharString>
        <CharString name="Lacute">
          1241 368 -83 callsubr
          -75 callsubr
          928 -1564 rmoveto
          -11 callsubr
          11 callsubr
          endchar
        </CharString>
        <CharString name="Lambdagreek">
          1497 1286 284 rmoveto
          -412 1160 -249 0 -419 -1174 -49 -135 -35 -25 -117 -13 rlinecurve
          -97 488 97 vlineto
          -163 19 -9 38 41 127 rrcurveto
          304 915 310 -927 44 -133 -44 -20 -135 -19 rlinecurve
          -97 652 97 vlineto
          -114 14 -39 20 -54 153 rrcurveto
          endchar
        </CharString>
        <CharString name="Lcaron">
          1241 996 1133 -42 callgsubr
          277 -1133 rmoveto
          -11 callsubr
          11 callsubr
          endchar
        </CharString>
        <CharString name="Lcircumflexbelow">
          10 callsubr
          366 -473 rmoveto
          202 -38 callgsubr
        </CharString>
        <CharString name="Lcommaaccent">
          10 callsubr
          547 -491 rmoveto
          162 105 75 117 117 -93 74 -135 -82 -69 33 callsubr
          36 7 117 callsubr
          -35 callgsubr
        </CharString>
        <CharString name="Ldot">
          10 callsubr
          919 708 rmoveto
          85 69 62 85 85 -69 62 -85 -85 -69 -62 -85 -85 69 -62 85 hvcurveto
          endchar
        </CharString>
        <CharString name="Ldotbelow">
          10 callsubr
          567 -175 -97 callsubr
          -82 callsubr
        </CharString>
        <CharString name="Ldotbelowmacron">
          1241 92 -31 callsubr
          1085 -1763 rmoveto
          -11 callsubr
          11 callsubr
          567 -175 -97 callsubr
          -82 callsubr
        </CharString>
        <CharString name="Ljecyrillic">
          2141 15 callgsubr
          410 -1104 hlineto
          -90 -20 -19 -149 -15 vhcurveto
          -97 700 vlineto
          368 191 209 246 278 -212 156 -361 hvcurveto
          -216 321 hlineto
          84 callsubr
          -1230 -22 callgsubr
          1730 320 rmoveto
          83 callgsubr
          116 vlineto
          219 134 -114 -211 hvcurveto
          endchar
        </CharString>
        <CharString name="Llinebelow">
          10 callsubr
          264 -372 -80 callsubr
        </CharString>
        <CharString name="Lslash">
          1241 64 596 rmoveto
          169 48 rlineto
          -423 -90 callgsubr
          1113 vlineto
          -11 callsubr
          rrcurveto
          -204 -6 0 617 350 100 0 121 -350 -99 rlineto
          365 -4 callgsubr
          -457 vlineto
          -169 -48 rlineto
          endchar
        </CharString>
        <CharString name="M">
          1930 583 1444 40 callsubr
        </CharString>
        <CharString name="Macute">
          1930 947 -83 callsubr
          -86 callgsubr
          -244 -120 40 callsubr
        </CharString>
        <CharString name="Mdotaccent">
          1930 965 -69 callsubr
          -382 -144 40 callsubr
        </CharString>
        <CharString name="Mdotbelow">
          1930 583 1444 rmoveto
          -516 -97 hlineto
          140 -16 21 -25 -3 -106 rrcurveto
          -22 -970 -3 -97 -15 -19 -140 -17 rlinecurve
          -97 468 97 vlineto
          -143 17 -16 20 -1 99 rrcurveto
          977 vlineto
          451 -1210 165 0 90 276 340 936 20 -996 2 -87 -18 -17 -142 -15 rlinecurve
          -97 625 97 vlineto
          -150 15 -18 19 -2 90 rrcurveto
          -21 1002 -2 90 21 19 150 15 rlinecurve
          97 vlineto
          -524 1 -361 -1086 rlineto
          -94 -534 -97 callsubr
          -28 callsubr
        </CharString>
        <CharString name="Mugreek">
          1930 583 1444 40 callsubr
        </CharString>
        <CharString name="N">
          1599 -29 callsubr
          -12 callsubr
          endchar
        </CharString>
        <CharString name="Nacute">
          1599 802 -83 callsubr
          -75 callsubr
          -166 -120 -16 callsubr
          -12 callsubr
          endchar
        </CharString>
        <CharString name="Ncaron">
          1599 1032 -76 callsubr
          -79 callsubr
          -632 -416 -16 callsubr
          -12 callsubr
          endchar
        </CharString>
        <CharString name="Ncircumflexbelow">
          1599 -29 callsubr
          -12 callsubr
          -684 -748 132 callsubr
          -97 callgsubr
        </CharString>
        <CharString name="Ncommaaccent">
          1599 -29 callsubr
          -12 callsubr
          -504 -766 22 callsubr
          73 callsubr
          136 callsubr
          -50 -27 -68 -47 callgsubr
          86 hhcurveto
          endchar
        </CharString>
        <CharString name="Ndotaccent">
          1599 820 -45 callsubr
          -4 callsubr
          -303 -144 -16 callsubr
          -12 callsubr
          endchar
        </CharString>
        <CharString name="Ndotbelow">
          1599 -29 callsubr
          -12 callsubr
          -482 -450 -97 callsubr
          -28 callsubr
        </CharString>
        <CharString name="Ngrave">
          1599 862 -71 callgsubr
          -14 -407 -16 callsubr
          -12 callsubr
          endchar
        </CharString>
        <CharString name="Njecyrillic">
          2261 534 216 rmoveto
          502 556 -502 vlineto
          -85 -18 -18 -140 -16 vhcurveto
          -97 690 vlineto
          368 190 198 232 260 -210 147 -362 hvcurveto
          -217 373 hlineto
          84 callsubr
          -642 -97 vlineto
          140 -17 18 -17 -86 vvcurveto
          -390 -556 390 vlineto
          101 callsubr
          -107 callsubr
          -68 callsubr
          1326 204 rmoveto
          -185 -108 -109 -232 -8 vhcurveto
          -129 -3 rlineto
          603 116 vlineto
          220 133 -105 -193 hvcurveto
          endchar
        </CharString>
        <CharString name="Nlinebelow">
          1599 -29 callsubr
          -12 callsubr
          -786 -647 -80 callsubr
        </CharString>
        <CharString name="Ntilde">
          1599 949 1568 rmoveto
          103 85 82 209 hvcurveto
          -110 hlineto
          -91 -3 -20 -33 -40 hhcurveto
          -28 130 callsubr
          -1 callsubr
          14 callgsubr
          62 hhcurveto
          -432 -124 -16 callsubr
          -12 callsubr
          endchar
        </CharString>
        <CharString name="Nugreek">
          1599 -29 callsubr
          -12 callsubr
          endchar
        </CharString>
        <CharString name="O">
          0 callsubr
          13 callsubr
          -105 callsubr
          -103 callsubr
        </CharString>
        <CharString name="OE">
          2148 99 713 rmoveto
          -407 306 -337 449 vhcurveto
          164 95 31 148 hhcurveto
          800 hlineto
          13 430 rlineto
          -90 hlineto
          -56 -274 -56 -28 -265 -8 -253 -8 rcurveline
          571 244 vlineto
          70 25 -29 -171 30 hvcurveto
          84 510 -84 hlineto
          -173 -35 -22 -26 -68 hhcurveto
          -244 538 hlineto
          247 -7 228 -8 63 -40 51 -215 rlinecurve
          91 hlineto
          -10 382 rlineto
          -758 hlineto
          -149 -76 31 -163 hhcurveto
          -473 -306 -325 -437 hvcurveto
          326 10 rmoveto
          348 179 273 306 54 49 -8 -16 40 vhcurveto
          -1197 vlineto
          -15 -45 -55 -8 -56 hhcurveto
          -298 -174 272 351 hvcurveto
          endchar
        </CharString>
        <CharString name="Oacute">
          1710 832 -49 callsubr
          -613 -843 -104 callsubr
          -105 callsubr
          -103 callsubr
        </CharString>
        <CharString name="Obreve">
          1710 850 1588 rmoveto
          192 223 callsubr
          -122 -123 -72 68 84 vhcurveto
          8 -103 vlineto
          -3 -16 -2 -17 -19 vvcurveto
          -138 110 -129 193 vhcurveto
          -751 -867 -104 callsubr
          -105 callsubr
          -103 callsubr
        </CharString>
        <CharString name="Ocaron">
          1710 1061 -76 callsubr
          67 callsubr
          205 0 215 297 rlineto
          -1080 -1139 -104 callsubr
          -105 callsubr
          -103 callsubr
        </CharString>
        <CharString name="Ocircumflex">
          1710 664 107 callsubr
          -448 -843 -104 callsubr
          -105 callsubr
          -103 callsubr
        </CharString>
        <CharString name="Ocircumflexacute">
          1710 1162 1839 rmoveto
          143 vlineto
          -624 -140 rlineto
          -83 vlineto
          -270 vmoveto
          312 91 311 -91 0 85 -280 74 callsubr
          -440 -853 -104 callsubr
          -105 callsubr
          -103 callsubr
        </CharString>
        <CharString name="Ocircumflexdotbelow">
          1710 664 107 callsubr
          -448 -843 -104 callsubr
          -105 callsubr
          -404 -87 callgsubr
          138 callsubr
          290 -70 callgsubr
          72 callsubr
          427 -915 -97 callsubr
          -82 callsubr
        </CharString>
        <CharString name="Ocircumflexgrave">
          1710 537 1839 rmoveto
          624 -80 0 83 -624 140 rlineto
          1 -493 rmoveto
          312 91 311 -91 0 85 -280 74 callsubr
          -440 -853 -104 callsubr
          -105 callsubr
          -103 callsubr
        </CharString>
        <CharString name="Ocircumflexhookabove">
          1710 1105 1958 rmoveto
          -76 -70 -24 -28 -41 hvcurveto
          -67 vlineto
          13 28 52 13 48 hhcurveto
          68 37 -22 -34 -33 -36 104 callgsubr
          -95 45 -111 vhcurveto
          -567 -469 rmoveto
          312 91 311 -91 0 85 -280 74 callsubr
          -440 -853 -104 callsubr
          -105 callsubr
          -103 callsubr
        </CharString>
        <CharString name="Ocircumflextilde">
          1710 979 1782 rmoveto
          105 78 -83 callgsubr
          -27 -19 -41 -25 -27 7 13 -39 vhcurveto
          -33 10 rlineto
          16 -46 -43 10 -51 hhcurveto
          -103 -79 -61 -122 hvcurveto
          110 hlineto
          43 26 19 41 26 27 -7 -12 38 vhcurveto
          34 -11 rlineto
          -16 45 44 -10 50 hhcurveto
          -441 -293 rmoveto
          312 91 311 -91 0 85 -280 74 callsubr
          -440 -853 -104 callsubr
          -105 callsubr
          -103 callsubr
        </CharString>
        <CharString name="Ocyrillic">
          0 callsubr
          13 callsubr
          -105 callsubr
          -103 callsubr
        </CharString>
        <CharString name="Odblgrave">
          1710 655 17 callsubr
          24 callsubr
          -10 hlineto
          168 -287 rlineto
          123 hlineto
          -997 -843 -104 callsubr
          -105 callsubr
          -103 callsubr
        </CharString>
        <CharString name="Odieresis">
          1710 668 -27 callsubr
          -57 -53 -71 -71 56 -52 71 hvcurveto
          364 hmoveto
          70 56 52 71 71 -56 53 -70 -70 -57 -53 -71 -71 56 -52 71 hvcurveto
          -933 -870 -104 callsubr
          -105 callsubr
          -103 callsubr
        </CharString>
        <CharString name="Odieresismacron">
          1710 537 111 callgsubr
          46 37 51 50 -46 38 -56 hvcurveto
          -13 hlineto
          -58 -45 -38 -50 -51 45 -37 58 hvcurveto
          355 hmoveto
          58 44 37 51 50 -44 38 -58 hvcurveto
          -13 hlineto
          -57 -73 callsubr
          -915 -828 -104 callsubr
          -105 callsubr
          -103 callsubr
        </CharString>
        <CharString name="Odotaccent">
          1710 850 16 callgsubr
          -751 -867 -104 callsubr
          -105 callsubr
          -103 callsubr
        </CharString>
        <CharString name="Odotaccentmacron">
          1710 537 1809 -78 callgsubr
          313 -383 rmoveto
          62 50 42 56 56 -50 42 -62 -63 -50 -42 -56 -56 50 -42 63 hvcurveto
          -751 -818 -104 callsubr
          -105 callsubr
          -103 callsubr
        </CharString>
        <CharString name="Odotbelow">
          0 callsubr
          13 callsubr
          -105 callsubr
          -404 -87 callgsubr
          138 callsubr
          290 -70 callgsubr
          72 callsubr
          427 -915 -97 callsubr
          -82 callsubr
        </CharString>
        <CharString name="Ograve">
          1710 892 80 callgsubr
          -461 -1130 -104 callsubr
          -105 callsubr
          -103 callsubr
        </CharString>
        <CharString name="Ohookabove">
          1710 878 127 callsubr
          159 callsubr
          -779 -1187 -104 callsubr
          -105 callsubr
          -103 callsubr
        </CharString>
        <CharString name="Ohorn">
          1733 99 721 -104 callsubr
          43 callsubr
        </CharString>
        <CharString name="Ohornacute">
          1733 837 -49 callsubr
          -618 -843 -104 callsubr
          43 callsubr
        </CharString>
        <CharString name="Ohorndotbelow">
          1733 99 721 -104 callsubr
          290 -141 231 -211 126 vhcurveto
          -4 24 26 -3 27 hhcurveto
          175 121 60 135 1 hvcurveto
          97 -67 93 -84 57 vhcurveto
          -95 hlineto
          20 -29 15 -62 -51 vvcurveto
          -125 -67 -87 -144 vhcurveto
          -101 -110 24 -143 174 callsubr
          -70 callgsubr
          72 callsubr
          421 -915 -97 callsubr
          70 callsubr
        </CharString>
        <CharString name="Ohorngrave">
          1733 897 80 callgsubr
          -466 -1130 -104 callsubr
          43 callsubr
        </CharString>
        <CharString name="Ohornhookabove">
          1733 883 127 callsubr
          159 callsubr
          -784 -1187 -104 callsubr
          43 callsubr
        </CharString>
        <CharString name="Ohorntilde">
          1733 983 -30 callsubr
          -103 callgsubr
          167 callsubr
          3 19 178 callsubr
          -884 -847 -104 callsubr
          43 callsubr
        </CharString>
        <CharString name="Ohungarumlaut">
          1710 696 1861 rmoveto
          -62 -297 122 0 171 287 rlineto
          10 vlineto
          148 106 callgsubr
          -1228 -1140 -104 callsubr
          -105 callsubr
          -103 callsubr
        </CharString>
        <CharString name="Oinvertedbreve">
          1710 850 1907 rmoveto
          -193 -110 -128 -139 -18 2 226 callsubr
          72 -67 -85 vhcurveto
          -8 103 vlineto
          3 16 2 18 18 vvcurveto
          139 -110 128 -192 vhcurveto
          -751 -1186 -104 callsubr
          -105 callsubr
          -103 callsubr
        </CharString>
        <CharString name="Omacron">
          92 callgsubr
          13 callsubr
          -105 callsubr
          -103 callsubr
        </CharString>
        <CharString name="Omacronacute">
          1710 1162 123 callsubr
          -1 -199 -78 callgsubr
          -438 -973 -104 callsubr
          -105 callsubr
          -103 callsubr
        </CharString>
        <CharString name="Omacrongrave">
          1710 537 110 callgsubr
          -421 vmoveto
          624 113 -624 hlineto
          -438 -973 -104 callsubr
          -105 callsubr
          -103 callsubr
        </CharString>
        <CharString name="Omegagreek">
          1584 80 hmoveto
          616 346 hlineto
          -219 65 -112 174 272 vvcurveto
          311 171 174 249 258 177 -187 -314 -267 -131 -173 -199 -56 vhcurveto
          -345 615 vlineto
          50 199 callsubr
          endchar
        </CharString>
        <CharString name="Omegatonosgreek">
          1781 276 hmoveto
          616 346 hlineto
          -218 65 -113 174 272 vvcurveto
          311 171 174 250 257 178 -187 -314 -267 -132 -173 -199 -56 vhcurveto
          -345 616 vlineto
          49 199 callsubr
          -104 682 27 callsubr
        </CharString>
        <CharString name="Omicrongreek">
          0 callsubr
          13 callsubr
          -105 callsubr
          -103 callsubr
        </CharString>
        <CharString name="Omicrontonosgreek">
          1836 226 721 rmoveto
          -463 349 -289 404 460 298 331 423 -105 callsubr
          -403 -460 -298 -331 -423 vhcurveto
          -105 339 rmoveto
          202 69 callsubr
          559 -320 rmoveto
          333 121 268 290 -70 callgsubr
          -269 -164 290 347 vhcurveto
          endchar
        </CharString>
        <CharString name="Oogonek">
          0 callsubr
          200 callsubr
        </CharString>
        <CharString name="Oogonekmacron">
          92 callgsubr
          200 callsubr
        </CharString>
        <CharString name="Oslash">
          0 callsubr
          179 callsubr
        </CharString>
        <CharString name="Oslashacute">
          1710 832 -49 callsubr
          -613 -843 rmoveto
          179 callsubr
        </CharString>
        <CharString name="Otilde">
          1710 978 -30 callsubr
          -103 callgsubr
          167 callsubr
          3 19 178 callsubr
          -879 -847 -104 callsubr
          -105 callsubr
          -103 callsubr
        </CharString>
        <CharString name="Otildeacute">
          1710 1162 123 callsubr
          441 -231 103 callsubr
          -43 10 -51 112 callsubr
          34 -10 rlineto
          -15 45 44 -11 50 hhcurveto
          -880 -828 -104 callsubr
          -105 callsubr
          -103 callsubr
        </CharString>
        <CharString name="Otildedieresis">
          1710 685 1803 rmoveto
          56 46 37 50 51 -46 38 -56 hvcurveto
          -13 hlineto
          -58 -45 -38 -51 -50 45 -37 58 hvcurveto
          355 hmoveto
          58 44 37 50 51 -44 38 -58 hvcurveto
          -13 hlineto
          -57 34 callsubr
          -35 -254 103 callsubr
          -43 10 -51 112 callsubr
          34 -10 rlineto
          -15 45 44 -11 50 hhcurveto
          -880 -828 -104 callsubr
          -105 callsubr
          -103 callsubr
        </CharString>
        <CharString name="Otildemacron">
          1710 537 1834 -78 callgsubr
          442 -398 103 callsubr
          -43 10 -51 112 callsubr
          34 -10 rlineto
          -15 45 44 -11 50 hhcurveto
          -880 -828 -104 callsubr
          -105 callsubr
          -103 callsubr
        </CharString>
        <CharString name="P">
          1416 1328 1009 42 callsubr
        </CharString>
        <CharString name="Pacute">
          1416 667 -83 callsubr
          -75 callsubr
          780 -555 42 callsubr
        </CharString>
        <CharString name="Pdotaccent">
          1416 685 -69 callsubr
          643 -579 42 callsubr
        </CharString>
        <CharString name="Pecyrillic">
          1707 1474 -55 callsubr
          37 callsubr
          -1579 -57 callsubr
          -107 callsubr
          -68 callsubr
          1109 638 -1109 vlineto
          -85 -18 -18 -140 -16 vhcurveto
          -97 629 -28 callgsubr
        </CharString>
        <CharString name="Phigreek">
          1881 84 718 rmoveto
          -317 268 -169 446 -13 vhcurveto
          -2 -84 -28 -22 -151 -16 rrcurveto
          -97 647 97 vlineto
          -151 16 -28 22 -3 84 rrcurveto
          431 15 284 175 314 vvcurveto
          320 -280 166 -435 13 vhcurveto
          2 87 26 22 154 16 rrcurveto
          97 -647 -97 vlineto
          153 -16 27 -22 2 -87 rrcurveto
          -419 -14 -296 -172 -318 vvcurveto
          1407 2 rmoveto
          -230 -157 -135 -252 -17 vhcurveto
          767 vlineto
          262 -17 147 -135 -233 vvcurveto
          -1101 6 rmoveto
          224 153 137 256 18 vhcurveto
          -767 vlineto
          -256 17 -153 133 238 vvcurveto
          endchar
        </CharString>
        <CharString name="Pigreek">
          1677 1444 221 -84 callsubr
          151 16 vhcurveto
          97 -1549 -57 callsubr
          -107 callsubr
          -68 callsubr
          1109 609 -1109 vlineto
          -85 -19 -18 -139 -16 vhcurveto
          -97 628 97 vlineto
          -151 16 -18 19 89 vvcurveto
          endchar
        </CharString>
        <CharString name="Psigreek">
          1815 1049 235 rmoveto
          251 vlineto
          327 17 171 135 50 331 rrcurveto
          32 211 18 121 32 30 97 4 rlinecurve
          97 vlineto
          5 -30 -58 7 -57 hhcurveto
          -156 -77 -60 -199 -32 hvcurveto
          -34 -220 -36 -226 -70 -108 -177 -23 rlinecurve
          619 vlineto
          87 19 17 140 16 vhcurveto
          97 -600 -97 vlineto
          139 -16 19 -17 -87 vvcurveto
          -619 vlineto
          -178 23 -70 109 -35 225 -35 220 rcurveline
          199 -31 -77 60 -156 hhcurveto
          -58 -58 -7 -5 -29 hvcurveto
          -97 vlineto
          98 -4 31 -30 18 -121 rrcurveto
          32 -211 50 -331 171 -135 327 -17 rlinecurve
          -251 -89 callgsubr
          648 76 callsubr
          endchar
        </CharString>
        <CharString name="Q">
          0 callsubr
          -436 311 -283 373 -30 vhcurveto
          140 -129 rlineto
          -192 214 101 -34 137 hhcurveto
          98 101 23 36 73 hvcurveto
          87 vlineto
          -125 -10 -108 47 -192 155 -78 64 rcurveline
          291 108 176 271 325 vvcurveto
          463 -349 289 -403 -461 -299 -331 -423 138 callsubr
          289 270 165 -290 -347 -1 vhcurveto
          -333 -1 -120 -268 -289 hhcurveto
          -270 -164 290 347 hvcurveto
          endchar
        </CharString>
        <CharString name="R">
          1431 1311 1049 7 callsubr
        </CharString>
        <CharString name="Racute">
          1431 671 -83 callsubr
          -86 callgsubr
          760 -515 7 callsubr
        </CharString>
        <CharString name="Rcaron">
          1431 900 1860 rmoveto
          -198 -149 -79 callsubr
          293 -811 7 callsubr
        </CharString>
        <CharString name="Rcommaaccent">
          155 callsubr
          -235 -1518 -77 callgsubr
          -68 33 callsubr
          35 7 117 callsubr
          21 callsubr
        </CharString>
        <CharString name="Rdblgrave">
          1431 494 17 callsubr
          24 callsubr
          -101 callgsubr
          375 -515 7 callsubr
        </CharString>
        <CharString name="Rdotaccent">
          1431 689 -69 callsubr
          622 -539 7 callsubr
        </CharString>
        <CharString name="Rdotbelow">
          155 callsubr
          -214 -1202 -97 callsubr
          -82 callsubr
        </CharString>
        <CharString name="Rdotbelowmacron">
          1431 395 -31 callsubr
          916 -714 rmoveto
          242 -1 -193 153 -392 hhcurveto
          -661 -89 callsubr
          -107 callsubr
          -68 callsubr
          145 callsubr
          -214 -1202 -97 callsubr
          -82 callsubr
        </CharString>
        <CharString name="Rhogreek">
          1416 1328 1009 42 callsubr
        </CharString>
        <CharString name="Rinvertedbreve">
          1431 689 -99 callgsubr
          72 -67 -85 vhcurveto
          -8 103 vlineto
          4 -57 callgsubr
          622 -858 7 callsubr
        </CharString>
        <CharString name="Rlinebelow">
          155 callsubr
          -517 -1399 -80 callsubr
        </CharString>
        <CharString name="S">
          1262 603 -31 86 callsubr
          endchar
        </CharString>
        <CharString name="Sacute">
          1262 646 -83 callsubr
          -75 callsubr
          76 -1595 86 callsubr
          endchar
        </CharString>
        <CharString name="Sacutedotaccent">
          1262 664 1763 rmoveto
          -15 callgsubr
          250 -1565 86 callsubr
          endchar
        </CharString>
        <CharString name="Scaron">
          1262 876 -76 callsubr
          -79 callsubr
          -390 -1891 86 callsubr
          endchar
        </CharString>
        <CharString name="Scarondotaccent">
          1262 664 1785 rmoveto
          63 49 41 -37 callgsubr
          -2 callgsubr
          -381 -1715 86 callsubr
          endchar
        </CharString>
        <CharString name="Scedilla">
          1262 580 31 callsubr
          -23 callsubr
          57 72 rlineto
          282 22 216 162 258 vvcurveto
          212 -122 140 -276 86 vhcurveto
          -120 37 rlineto
          -162 51 -88 66 121 vvcurveto
          126 92 89 178 176 132 -96 -211 40 vhcurveto
          91 hlineto
          -11 329 rlineto
          62 -81 -161 50 -187 hhcurveto
          -348 -212 -177 -247 -207 140 -141 257 -78 hvcurveto
          119 -38 rlineto
          172 -53 81 -80 -127 vvcurveto
          -131 -106 -93 -170 -195 -161 102 219 -49 vhcurveto
          -91 hlineto
          11 -331 rlineto
          86 -63 163 -51 182 -9 -90 -112 rcurveline
          -26 callgsubr
          -8 callsubr
          137 callsubr
        </CharString>
        <CharString name="Schwa">
          1526 707 -31 rmoveto
          424 296 284 462 490 -298 270 -442 -222 -196 -44 -66 -98 hvcurveto
          -11 -341 rlineto
          91 hlineto
          220 55 135 96 213 hhcurveto
          293 157 -223 -409 hvcurveto
          -7 -1019 vlineto
          -7 -34 -4 -42 -41 vvcurveto
          -358 209 -257 424 vhcurveto
          -341 600 rmoveto
          6 0 7 5 vvcurveto
          733 hlineto
          -27 -314 -136 -169 -222 -1 rrcurveto
          -249 -99 196 270 hvcurveto
          endchar
        </CharString>
        <CharString name="Scircumflex">
          1262 479 -42 callsubr
          -67 callsubr
          242 -1595 86 callsubr
          endchar
        </CharString>
        <CharString name="Scommaaccent">
          1262 603 -31 86 callsubr
          -9 -460 22 callsubr
          73 callsubr
          -53 callgsubr
          -68 -58 -53 14 19 21 callsubr
        </CharString>
        <CharString name="Sdotaccent">
          1262 664 -69 callsubr
          -61 -1619 86 callsubr
          endchar
        </CharString>
        <CharString name="Sdotbelow">
          1262 603 -31 86 callsubr
          12 -144 -97 callsubr
          -28 callsubr
        </CharString>
        <CharString name="Sdotbelowdotaccent">
          1262 664 -69 callsubr
          -61 -1619 86 callsubr
          12 -144 -97 callsubr
          -28 callsubr
        </CharString>
        <CharString name="Shacyrillic">
          2410 2177 -55 callsubr
          37 callsubr
          -629 -97 vlineto
          140 -17 19 -17 -85 vvcurveto
          -1109 -521 134 callsubr
          -618 -97 vlineto
          140 -17 18 -17 -85 vvcurveto
          -1109 -520 134 callsubr
          -629 -57 callsubr
          -107 callsubr
          2282 -28 callgsubr
        </CharString>
        <CharString name="Shchacyrillic">
          2440 2378 119 rmoveto
          -201 1104 hlineto
          129 callsubr
          -17 19 -17 -85 vvcurveto
          -1109 -521 134 callsubr
          -618 -97 vlineto
          140 -17 18 -17 -85 vvcurveto
          -1109 -520 134 callsubr
          -629 -57 callsubr
          -107 callsubr
          1922 vlineto
          177 36 -21 -283 84 hvcurveto
          103 hlineto
          endchar
        </CharString>
        <CharString name="Sigmagreek">
          1308 1169 1444 rmoveto
          -1109 -91 hlineto
          476 -648 -476 -554 rlineto
          -151 1144 vlineto
          14 485 rlineto
          -101 hlineto
          -247 -49 -65 -32 -267 hhcurveto
          -472 hlineto
          523 562 0 35 -377 531 344 -10 232 -7 51 -51 51 -202 rlinecurve
          91 hlineto
          endchar
        </CharString>
        <CharString name="Softsigncyrillic">
          1404 1323 -76 callgsubr
          84 callsubr
          -653 -57 callsubr
          -107 callsubr
          699 230 callsubr
          -11 callgsubr
        </CharString>
        <CharString name="T">
          1415 -44 callsubr
          -60 callsubr
          -51 callsubr
          47 callsubr
          endchar
        </CharString>
        <CharString name="Taugreek">
          1415 -44 callsubr
          -60 callsubr
          -51 callsubr
          47 callsubr
          endchar
        </CharString>
        <CharString name="Tbar">
          1415 264 683 rmoveto
          293 -449 hlineto
          -97 -22 -24 -161 -17 vhcurveto
          -96 667 96 vlineto
          -162 17 -21 24 97 vvcurveto
          449 293 114 -293 535 232 callsubr
          -11 382 -1291 0 -11 -60 callsubr
          -535 -293 vlineto
          endchar
        </CharString>
        <CharString name="Tcaron">
          1415 919 -76 callsubr
          -79 callsubr
          317 -416 rmoveto
          -1291 hlineto
          -11 -60 callsubr
          -51 callsubr
          47 callsubr
          endchar
        </CharString>
        <CharString name="Tcedilla">
          1415 673 -491 rmoveto
          139 130 66 127 127 -107 67 -132 3 hvcurveto
          80 101 rlineto
          258 97 hlineto
          -162 17 -21 24 97 vvcurveto
          1097 232 callsubr
          -11 382 -1291 0 -11 -60 callsubr
          -51 callsubr
          288 vlineto
          -114 -142 rlineto
          -82 vlineto
          2 8 17 2 16 hhcurveto
          76 54 -26 -54 -52 -50 -27 -67 -56 -55 16 22 -34 hvcurveto
          -95 vlineto
          -34 47 76 -21 93 hhcurveto
          endchar
        </CharString>
        <CharString name="Tcircumflexbelow">
          1415 -44 callsubr
          -60 callsubr
          -51 callsubr
          47 callsubr
          -859 -1535 rmoveto
          203 -38 callgsubr
        </CharString>
        <CharString name="Tcommaaccent">
          1415 -44 callsubr
          -60 callsubr
          -51 callsubr
          47 callsubr
          -677 -1553 102 callsubr
          -49 -27 -69 -47 callgsubr
          87 hhcurveto
          endchar
        </CharString>
        <CharString name="Tdotaccent">
          1415 707 -45 callsubr
          -4 callsubr
          646 -144 rmoveto
          -1291 hlineto
          -11 -60 callsubr
          -51 callsubr
          47 callsubr
          endchar
        </CharString>
        <CharString name="Tdotbelow">
          1415 -44 callsubr
          -60 callsubr
          -51 callsubr
          47 callsubr
          -657 -1237 -97 callsubr
          -82 callsubr
        </CharString>
        <CharString name="Tecyrillic">
          1415 -44 callsubr
          -60 callsubr
          -51 callsubr
          47 callsubr
          endchar
        </CharString>
        <CharString name="Thetagreek">
          1716 854 -31 rmoveto
          463 301 331 423 463 -352 289 -404 -463 -301 -331 -423 -463 352 -289 404 hvcurveto
          17 125 rmoveto
          -286 -171 289 357 344 128 266 304 286 171 -288 -358 -346 -129 -264 -303 hvcurveto
          -306 368 rmoveto
          77 hlineto
          153 26 33 30 97 hhcurveto
          116 hlineto
          95 34 -30 -153 25 hvcurveto
          78 495 -78 hlineto
          -152 -25 -34 -32 -95 hhcurveto
          -116 hlineto
          -97 -33 32 152 -26 hvcurveto
          -77 hlineto
          endchar
        </CharString>
        <CharString name="Thorn">
          1391 1319 739 rmoveto
          273 -243 121 -367 vhcurveto
          -175 77 hlineto
          84 callsubr
          -653 -97 vlineto
          152 -16 17 -19 -88 vvcurveto
          -1004 vlineto
          -88 -17 -19 -152 -16 vhcurveto
          -97 -22 callsubr
          88 175 vlineto
          358 1 252 140 275 vvcurveto
          -319 -18 rmoveto
          -188 -135 -88 -245 -8 vhcurveto
          -86 -2 0 586 86 -3 rlineto
          247 -6 133 -103 -188 vvcurveto
          endchar
        </CharString>
        <CharString name="Tlinebelow">
          1415 -44 callsubr
          -60 callsubr
          -51 callsubr
          47 callsubr
          -960 -1434 -80 callsubr
        </CharString>
        <CharString name="Tsecyrillic">
          1737 1674 119 rmoveto
          -200 1104 hlineto
          129 callsubr
          -17 18 -17 -86 vvcurveto
          -1108 -638 1108 vlineto
          101 callsubr
          -107 callsubr
          1219 vlineto
          177 36 -21 -283 83 hvcurveto
          103 hlineto
          endchar
        </CharString>
        <CharString name="Tshecyrillic">
          1886 -44 callsubr
          -21 callgsubr
          406 vlineto
          37 60 93 20 105 hhcurveto
          192 100 -103 -210 hvcurveto
          -371 461 97 vlineto
          -141 16 -19 18 85 vvcurveto
          173 vlineto
          326 -200 120 -285 -1 vhcurveto
          -156 -133 -37 -48 -77 hvcurveto
          581 108 callgsubr
        </CharString>
        <CharString name="U">
          1597 196 1228 -91 callsubr
        </CharString>
        <CharString name="Uacute">
          1597 838 -49 callsubr
          -522 -336 -91 callsubr
        </CharString>
        <CharString name="Ubreve">
          1597 855 1588 rmoveto
          193 223 callsubr
          -123 -122 -72 68 84 vhcurveto
          8 -103 vlineto
          -3 -16 -2 -17 -19 vvcurveto
          -138 110 -129 192 vhcurveto
          -659 -360 -91 callsubr
        </CharString>
        <CharString name="Ubrevecyrillic">
          1490 809 1585 rmoveto
          203 133 101 137 79 -47 48 -71 -68 -46 -49 -62 -44 25 -38 36 -16 hvcurveto
          -30 -41 -59 -16 -66 hhcurveto
          -66 -58 16 30 -41 hvcurveto
          36 16 170 callsubr
          -557 -1462 189 callsubr
        </CharString>
        <CharString name="Ucaron">
          1597 1067 -76 callsubr
          67 callsubr
          205 0 215 297 rlineto
          -989 -632 -91 callsubr
        </CharString>
        <CharString name="Ucircumflex">
          1597 670 62 callsubr
          121 0 -215 -67 callsubr
          -357 -336 -91 callsubr
        </CharString>
        <CharString name="Ucircumflexbelow">
          106 callsubr
          435 -1701 -3 callsubr
          64 callsubr
        </CharString>
        <CharString name="Ucyrillic">
          1490 252 123 189 callsubr
        </CharString>
        <CharString name="Udblgrave">
          1597 661 17 callsubr
          130 hlineto
          226 297 rmoveto
          -230 -10 hlineto
          168 -287 rlineto
          123 hlineto
          -906 -336 -91 callsubr
        </CharString>
        <CharString name="Udieresis">
          1597 674 1591 rmoveto
          70 57 52 71 71 -57 113 callsubr
          -842 -363 -91 callsubr
        </CharString>
        <CharString name="Udieresisacute">
          1597 1168 123 callsubr
          147 -231 rmoveto
          56 45 37 51 50 78 callsubr
          -50 -51 71 callsubr
          77 callsubr
          -73 callsubr
          -824 -321 -91 callsubr
        </CharString>
        <CharString name="Udieresisbelow">
          106 callsubr
          410 -1653 rmoveto
          116 callsubr
          452 hmoveto
          116 callsubr
          endchar
        </CharString>
        <CharString name="Udieresiscaron">
          1597 1167 2002 rmoveto
          -312 -88 -311 88 0 -83 280 -139 63 0 279 139 rlineto
          -475 -370 rmoveto
          56 45 37 51 50 78 callsubr
          -50 -51 71 callsubr
          77 callsubr
          -73 callsubr
          -824 -321 -91 callsubr
        </CharString>
        <CharString name="Udieresisgrave">
          1597 543 110 callgsubr
          148 -453 rmoveto
          56 45 37 51 50 78 callsubr
          -50 -51 71 callsubr
          77 callsubr
          -73 callsubr
          -824 -321 -91 callsubr
        </CharString>
        <CharString name="Udieresismacron">
          1597 543 111 callgsubr
          45 37 51 50 78 callsubr
          -50 -51 71 callsubr
          77 callsubr
          -73 callsubr
          -824 -321 -91 callsubr
        </CharString>
        <CharString name="Udotbelow">
          106 callsubr
          636 -1403 rmoveto
          -72 -58 -53 -72 -72 58 -53 72 -82 callsubr
        </CharString>
        <CharString name="Ugrave">
          1597 897 -71 callgsubr
          -370 -623 -91 callsubr
        </CharString>
        <CharString name="Uhookabove">
          1597 884 127 callsubr
          159 callsubr
          -688 -680 -91 callsubr
        </CharString>
        <CharString name="Uhorn">
          1707 196 533 rmoveto
          -26 callsubr
          186 callsubr
          endchar
        </CharString>
        <CharString name="Uhornacute">
          1707 854 -83 callsubr
          -75 callsubr
          -539 -1031 rmoveto
          -26 callsubr
          186 callsubr
          endchar
        </CharString>
        <CharString name="Uhorndotbelow">
          1707 196 533 rmoveto
          -26 callsubr
          186 callsubr
          638 -1389 -97 callsubr
          -82 callsubr
        </CharString>
        <CharString name="Uhorngrave">
          1707 914 55 callsubr
          -386 -1318 rmoveto
          -26 callsubr
          186 callsubr
          endchar
        </CharString>
        <CharString name="Uhornhookabove">
          1707 901 -88 callgsubr
          131 callsubr
          105 callsubr
          -705 -1375 rmoveto
          -26 callsubr
          186 callsubr
          endchar
        </CharString>
        <CharString name="Uhorntilde">
          1707 1000 -30 callsubr
          58 callsubr
          -1 callsubr
          109 hlineto
          91 32 callgsubr
          -804 -1035 rmoveto
          -26 callsubr
          186 callsubr
          endchar
        </CharString>
        <CharString name="Uhungarumlaut">
          1597 702 1861 rmoveto
          -62 -297 122 0 170 287 rlineto
          10 vlineto
          149 106 callgsubr
          -1137 -633 -91 callsubr
        </CharString>
        <CharString name="Uinvertedbreve">
          1597 855 1907 rmoveto
          -193 -109 -128 -139 -18 2 -18 3 -16 hvcurveto
          103 8 hlineto
          85 71 67 123 123 72 -67 -85 vhcurveto
          -8 103 vlineto
          3 16 2 18 18 vvcurveto
          139 -110 128 -193 vhcurveto
          -659 -679 -91 callsubr
        </CharString>
        <CharString name="Umacron">
          1597 561 -41 callgsubr
          -365 -535 -91 callsubr
        </CharString>
        <CharString name="Umacrondieresis">
          1597 691 1803 rmoveto
          56 45 37 50 51 78 callsubr
          -51 -50 71 callsubr
          50 51 -45 38 -57 hvcurveto
          -13 hlineto
          -57 34 callsubr
          -454 -222 rmoveto
          579 113 -579 hlineto
          -370 -466 -91 callsubr
        </CharString>
        <CharString name="Uogonek">
          1597 853 -491 rmoveto
          90 79 31 45 39 hvcurveto
          95 vlineto
          -14 -16 -29 -10 -33 hhcurveto
          -71 -58 69 104 55 16 53 24 38 hvcurveto
          308 39 191 215 3 326 5 662 rcurveline
          93 19 20 140 17 vhcurveto
          97 -477 -97 vlineto
          152 -16 17 -21 -96 vvcurveto
          5 -634 rlineto
          -17 callgsubr
          -695 vlineto
          -367 270 -190 307 -7 vhcurveto
          -83 -72 -60 -95 -91 vvcurveto
          -126 98 -76 125 vhcurveto
          endchar
        </CharString>
        <CharString name="Upsilondieresisgreek">
          1427 605 1591 rmoveto
          70 57 52 71 71 -57 113 callsubr
          -738 -429 -62 callsubr
        </CharString>
        <CharString name="Upsilongreek">
          1427 231 1162 -62 callsubr
        </CharString>
        <CharString name="Upsilontonosgreek">
          1810 614 1162 rmoveto
          335 -545 rlineto
          -382 79 callsubr
          666 25 callsubr
          147 callsubr
          -493 -102 27 callsubr
        </CharString>
        <CharString name="Uring">
          1597 586 1760 rmoveto
          -119 117 -83 152 153 117 83 119 119 -117 83 -153 -152 -117 -83 -119 vhcurveto
          170 56 callgsubr
          -560 -532 -91 callsubr
        </CharString>
        <CharString name="Utilde">
          1597 984 -30 callsubr
          -103 callgsubr
          167 callsubr
          2 20 178 callsubr
          -788 -340 -91 callsubr
        </CharString>
        <CharString name="Utildeacute">
          1597 1168 123 callsubr
          441 -231 103 callsubr
          -44 10 -50 112 callsubr
          33 -10 rlineto
          -15 46 44 -11 50 hhcurveto
          -789 -321 -91 callsubr
        </CharString>
        <CharString name="Utildebelow">
          106 callsubr
          760 -1666 -100 callgsubr
          -2 -20 160 callsubr
          40 hhcurveto
          88 callgsubr
        </CharString>
        <CharString name="V">
          112 callgsubr
          endchar
        </CharString>
        <CharString name="Vdotbelow">
          112 callgsubr
          550 -1327 rmoveto
          -72 -58 -53 -72 -72 58 -53 72 -82 callsubr
        </CharString>
        <CharString name="Vecyrillic">
          1460 1374 424 92 callsubr
        </CharString>
        <CharString name="Vtilde">
          1495 937 1568 rmoveto
          103 85 82 209 hvcurveto
          -110 hlineto
          -91 -3 -20 -33 -40 hhcurveto
          -28 130 callsubr
          -1 callsubr
          14 callgsubr
          62 hhcurveto
          -733 -416 rmoveto
          198 callsubr
          endchar
        </CharString>
        <CharString name="W">
          2266 200 1152 5 callsubr
        </CharString>
        <CharString name="Wacute">
          2266 1198 -55 callgsubr
          -879 -412 5 callsubr
        </CharString>
        <CharString name="Wcircumflex">
          2266 1031 -42 callsubr
          -67 callsubr
          -713 -412 5 callsubr
        </CharString>
        <CharString name="Wdieresis">
          2266 1034 -27 callsubr
          -72 callsubr
          128 callsubr
          -1198 -439 5 callsubr
        </CharString>
        <CharString name="Wdotaccent">
          2266 1216 -69 callsubr
          -1016 -436 5 callsubr
        </CharString>
        <CharString name="Wdotbelow">
          2266 200 1152 rmoveto
          366 -1152 245 0 326 1045 312 -1045 250 0 364 1148 51 161 29 23 130 15 rlinecurve
          97 -487 -33 callgsubr
          203 callsubr
          935 -1327 -97 callsubr
          -82 callsubr
        </CharString>
        <CharString name="Wgrave">
          2266 1258 55 callsubr
          -726 -699 5 callsubr
        </CharString>
        <CharString name="X">
          1452 285 298 39 callsubr
        </CharString>
        <CharString name="Xdieresis">
          1452 623 1591 rmoveto
          70 56 52 71 71 -56 113 callsubr
          -702 -1293 39 callsubr
        </CharString>
        <CharString name="Xdotaccent">
          1452 804 -45 callsubr
          -4 callsubr
          -519 -1290 39 callsubr
        </CharString>
        <CharString name="Xigreek">
          1382 1290 1444 rmoveto
          -1198 hlineto
          -15 -434 rlineto
          90 hlineto
          195 46 69 33 227 hhcurveto
          365 hlineto
          227 69 -33 -195 45 hvcurveto
          91 hlineto
          -726 -342 rmoveto
          222 hlineto
          110 38 -37 -148 27 hvcurveto
          84 489 -84 hlineto
          -148 -27 -38 -37 -110 hhcurveto
          -222 hlineto
          -109 -38 37 148 -27 hvcurveto
          -85 -489 85 hlineto
          148 27 38 37 109 hhcurveto
          714 -668 rmoveto
          19 475 rlineto
          -91 hlineto
          -243 -49 -64 -26 -268 hhcurveto
          -299 hlineto
          -268 -65 26 243 -48 hvcurveto
          -91 hlineto
          18 -475 rlineto
          endchar
        </CharString>
        <CharString name="Xigreek.1">
          1385 581 668 rmoveto
          62 -462 -100 hlineto
          -268 -64 26 243 -49 hvcurveto
          -90 hlineto
          18 -475 1205 0 18 475 rlineto
          -90 hlineto
          -243 -48 -65 -26 -268 hhcurveto
          -100 462 62 hlineto
          110 36 -37 -148 27 hvcurveto
          86 489 -86 hlineto
          -148 -27 -36 -37 -110 hhcurveto
          -62 451 133 hlineto
          227 69 -33 -195 46 hvcurveto
          91 hlineto
          -17 434 -1197 0 -16 -434 rlineto
          90 hlineto
          195 46 70 33 226 hhcurveto
          133 -451 -62 hlineto
          -109 -37 37 148 -27 hvcurveto
          -86 -489 86 hlineto
          148 27 37 37 109 hhcurveto
          endchar
        </CharString>
        <CharString name="Y">
          1427 231 1162 -62 callsubr
        </CharString>
        <CharString name="Yacute">
          1427 769 -49 callsubr
          -418 -402 -62 callsubr
        </CharString>
        <CharString name="Ycircumflex">
          1427 601 62 callsubr
          121 0 -215 297 -204 0 -216 -297 rlineto
          -252 -402 -62 callsubr
        </CharString>
        <CharString name="Ydieresis">
          1427 605 1591 rmoveto
          70 57 52 71 71 -57 113 callsubr
          -738 -429 -62 callsubr
        </CharString>
        <CharString name="Ydotaccent">
          1427 786 -45 callsubr
          -72 -59 -54 -72 -71 59 -53 72 hvcurveto
          -555 -426 -62 callsubr
        </CharString>
        <CharString name="Ydotbelow">
          1427 231 1162 rmoveto
          335 -545 rlineto
          -382 79 callsubr
          666 25 callsubr
          147 callsubr
          495 -1337 -97 callsubr
          70 callsubr
        </CharString>
        <CharString name="Yericyrillic">
          2073 1323 -76 callgsubr
          84 callsubr
          -653 -57 callsubr
          -107 callsubr
          699 vlineto
          369 191 209 246 hvcurveto
          517 -234 rmoveto
          1002 vlineto
          89 37 callsubr
          -639 -57 callsubr
          -107 callsubr
          639 97 vlineto
          -152 16 -17 19 89 vvcurveto
          -837 224 rmoveto
          -11 callgsubr
        </CharString>
        <CharString name="Ygrave">
          1427 828 -71 callgsubr
          -266 -689 -62 callsubr
        </CharString>
        <CharString name="Yhookabove">
          1427 815 127 callsubr
          27 50 17 54 hhcurveto
          67 40 -27 -44 -44 -42 -39 -95 -63 hvcurveto
          101 hlineto
          159 64 58 56 73 vvcurveto
          84 -78 58 -120 vhcurveto
          -584 -746 -62 callsubr
        </CharString>
        <CharString name="Yicyrillic">
          768 202 -27 callsubr
          -72 callsubr
          128 callsubr
          -32 -1370 -84 callsubr
          -86 callsubr
          -107 callsubr
          -87 callsubr
        </CharString>
        <CharString name="Ymacron">
          1427 492 -31 callsubr
          -261 -601 -62 callsubr
        </CharString>
        <CharString name="Ytilde">
          1427 915 -30 callsubr
          -103 callgsubr
          130 callsubr
          -1 callsubr
          110 hlineto
          91 2 20 32 41 hhcurveto
          28 23 -13 -23 31 hvcurveto
          30 -22 rlineto
          -38 52 45 -24 62 hhcurveto
          -684 -406 -62 callsubr
        </CharString>
        <CharString name="Z">
          1308 1217 hmoveto
          9 callsubr
        </CharString>
        <CharString name="Zacute">
          1308 642 -49 callsubr
          695 -1564 rmoveto
          9 callsubr
        </CharString>
        <CharString name="Zcaron">
          1308 871 -76 callsubr
          -196 149 -122 0 216 -297 204 0 215 297 rlineto
          228 -1860 rmoveto
          9 callsubr
        </CharString>
        <CharString name="Zcircumflex">
          1308 474 107 callsubr
          860 -1564 rmoveto
          9 callsubr
        </CharString>
        <CharString name="Zdotaccent">
          1308 660 16 callgsubr
          557 -1588 rmoveto
          9 callsubr
        </CharString>
        <CharString name="Zdotbelow">
          -6 callgsubr
          581 -185 -97 callsubr
          -28 callsubr
        </CharString>
        <CharString name="Zecyrillic">
          1314 1228 422 rmoveto
          219 -164 118 -236 26 vhcurveto
          191 38 153 113 184 vvcurveto
          214 -178 141 -369 -201 -180 -54 -58 -90 vhcurveto
          -11 -329 rlineto
          91 hlineto
          223 54 114 84 187 hhcurveto
          171 99 -100 -159 -167 -114 -109 -198 hvcurveto
          -134 -115 134 hlineto
          229 130 -99 -189 -191 -137 -109 -194 -181 -130 79 238 -55 hvcurveto
          -91 hlineto
          11 -328 rlineto
          -66 102 193 -57 186 hhcurveto
          344 274 175 278 hvcurveto
          endchar
        </CharString>
        <CharString name="Zetagreek">
          1308 1217 hmoveto
          9 callsubr
        </CharString>
        <CharString name="Zhecyrillic">
          2087 351 hmoveto
          414 684 rlineto
          130 -468 hlineto
          -87 -16 -17 -143 -15 vhcurveto
          -97 601 97 vlineto
          -143 15 -16 17 87 vvcurveto
          468 130 vlineto
          414 -684 151 callsubr
          -371 rcurveline
          -126 427 hlineto
          87 16 17 143 15 vhcurveto
          97 -601 -97 vlineto
          143 -15 16 -17 -87 vvcurveto
          -427 -126 vlineto
          -304 371 -100 124 20 38 155 13 rlinecurve
          97 -535 -97 vlineto
          134 -22 45 -36 159 -174 rrcurveto
          213 -237 -308 -501 -132 -216 -46 -47 -77 -23 rlinecurve
          -91 vlineto
          endchar
        </CharString>
        <CharString name="Zlinebelow">
          -6 callgsubr
          277 -382 -80 callsubr
        </CharString>
        <CharString name="a">
          1186 388 -23 -100 callsubr
        </CharString>
        <CharString name="a.dnum">
          768 249 -14 107 callgsubr
          15 20 25 hvcurveto
          64 vlineto
          -2 -8 callgsubr
          4 18 20 3 73 callgsubr
          -65 -86 -1 callgsubr
          -17 -44 hhcurveto
          -50 -38 26 47 hvcurveto
          endchar
        </CharString>
        <CharString name="a.numr">
          768 249 628 107 callgsubr
          16 19 25 hvcurveto
          65 vlineto
          -3 -8 callgsubr
          5 18 20 2 73 callgsubr
          -64 -87 -1 callgsubr
          -16 -44 hhcurveto
          -50 -38 25 47 hvcurveto
          endchar
        </CharString>
        <CharString name="a.sups">
          768 249 808 rmoveto
          95 76 39 56 36 hvcurveto
          -56 17 61 -35 73 hhcurveto
          53 44 15 19 25 hvcurveto
          65 vlineto
          -3 -7 -10 0 -12 hhcurveto
          -32 -27 17 103 callgsubr
          -67 -85 -49 38 -33 53 55 38 38 50 20 -6 18 -12 14 vhcurveto
          4 18 20 2 21 hhcurveto
          81 51 -35 -90 hvcurveto
          -29 vlineto
          -131 -28 rlineto
          -184 -38 -65 -65 -86 vvcurveto
          -83 72 -61 109 vhcurveto
          12 178 rmoveto
          48 36 30 97 19 vhcurveto
          54 11 rlineto
          -141 vlineto
          -23 -19 -36 -16 -44 hhcurveto
          -50 -38 26 46 hvcurveto
          endchar
        </CharString>
        <CharString name="aacute">
          1186 523 -66 callsubr
          -14 -1195 -100 callsubr
        </CharString>
        <CharString name="abreve">
          1186 554 -105 callgsubr
          -96 callgsubr
          -166 -1203 -100 callsubr
        </CharString>
        <CharString name="abreveacute">
          1186 858 15 callsubr
          304 -313 -37 callsubr
          -166 -1161 -100 callsubr
        </CharString>
        <CharString name="abrevecyrillic">
          1186 554 1174 rmoveto
          213 callsubr
          -49 54 -69 -78 -50 -50 -87 -150 140 -114 203 vhcurveto
          -166 -1197 -100 callsubr
        </CharString>
        <CharString name="abrevedotbelow">
          1186 554 -105 callgsubr
          -96 callgsubr
          -166 -1203 38 callsubr
          251 -714 -78 callsubr
        </CharString>
        <CharString name="abrevegrave">
          1186 250 124 callsubr
          304 -575 -37 callsubr
          -166 -1161 -100 callsubr
        </CharString>
        <CharString name="abrevehookabove">
          1186 547 0 callgsubr
          76 50 93 vvcurveto
          93 -96 51 -113 vhcurveto
          7 -567 -37 callsubr
          -166 -1161 -100 callsubr
        </CharString>
        <CharString name="abrevetilde">
          1186 680 97 callsubr
          25 21 40 122 callsubr
          -126 -338 -37 callsubr
          -166 -1161 -100 callsubr
        </CharString>
        <CharString name="acaron">
          1186 771 -59 callsubr
          -125 -52 callgsubr
          -504 -1577 -100 callsubr
        </CharString>
        <CharString name="acircumflex">
          1186 337 -15 callsubr
          173 -1195 -100 callsubr
        </CharString>
        <CharString name="acircumflexacute">
          1186 858 15 callsubr
          -311 vmoveto
          -34 callsubr
          138 -1263 -100 callsubr
        </CharString>
        <CharString name="acircumflexdotbelow">
          1186 337 -15 callsubr
          173 -1195 38 callsubr
          251 -714 -78 callsubr
        </CharString>
        <CharString name="acircumflexgrave">
          1186 250 124 callsubr
          -573 vmoveto
          -34 callsubr
          138 -1263 -100 callsubr
        </CharString>
        <CharString name="acircumflexhookabove">
          1186 789 172 callsubr
          38 126 callsubr
          77 50 93 vvcurveto
          93 -98 -93 callgsubr
          -34 callsubr
          138 -1263 -100 callsubr
        </CharString>
        <CharString name="acircumflextilde">
          1186 680 97 callsubr
          25 21 40 122 callsubr
          -430 -336 rmoveto
          -34 callsubr
          138 -1263 -100 callsubr
        </CharString>
        <CharString name="acute">
          1024 481 -66 callsubr
          endchar
        </CharString>
        <CharString name="acutecmb">
          0 -31 -66 callsubr
          endchar
        </CharString>
        <CharString name="acutecmb.short">
          0 -18 1137 rmoveto
          329 286 rlineto
          11 -75 callsubr
          endchar
        </CharString>
        <CharString name="acutedotaccentcmb">
          0 1434 vmoveto
          72 callgsubr
          304 -199 rmoveto
          167 vlineto
          -608 -163 rlineto
          -98 vlineto
          endchar
        </CharString>
        <CharString name="acutedotaccentcmb.short">
          0 1763 vmoveto
          -15 callgsubr
          endchar
        </CharString>
        <CharString name="acyrillic">
          1186 388 -23 -100 callsubr
        </CharString>
        <CharString name="adblgrave">
          1186 312 60 callsubr
          130 hlineto
          233 96 callgsubr
          -410 -1195 -100 callsubr
        </CharString>
        <CharString name="adieresis">
          1186 311 -10 callsubr
          23 callgsubr
          -409 -1246 -100 callsubr
        </CharString>
        <CharString name="adieresismacron">
          1186 250 1507 36 callsubr
          130 -482 rmoveto
          60 -58 callgsubr
          374 hmoveto
          60 -58 callgsubr
          -340 -1180 -100 callsubr
        </CharString>
        <CharString name="adotaccent">
          1186 554 1214 rmoveto
          68 callgsubr
          -166 -1237 -100 callsubr
        </CharString>
        <CharString name="adotbelow">
          1186 388 -23 38 callsubr
          251 -714 -78 callsubr
        </CharString>
        <CharString name="adotmacron">
          1186 250 1494 36 callsubr
          304 -471 rmoveto
          66 52 49 66 66 -52 49 -66 -66 -53 -49 -66 -66 53 -49 66 hvcurveto
          -166 -1178 -100 callsubr
        </CharString>
        <CharString name="ae">
          1722 396 -23 140 callsubr
        </CharString>
        <CharString name="aeacute">
          1722 837 -61 callsubr
          -319 -1195 140 callsubr
        </CharString>
        <CharString name="aemacron">
          1722 541 -43 callsubr
          -145 -1451 140 callsubr
        </CharString>
        <CharString name="agrave">
          1186 586 12 callsubr
          156 -1565 -100 callsubr
        </CharString>
        <CharString name="ahookabove">
          1186 593 1562 rmoveto
          -119 -86 45 callsubr
          -205 -1585 -100 callsubr
        </CharString>
        <CharString name="ainvertedbreve">
          1186 554 161 callsubr
          -69 callgsubr
          -166 -1570 -100 callsubr
        </CharString>
        <CharString name="alphagreek">
          1345 484 -23 182 callsubr
        </CharString>
        <CharString name="alphatonosgreek">
          1345 687 1171 rmoveto
          201 69 callsubr
          -81 -1194 182 callsubr
        </CharString>
        <CharString name="amacron">
          1186 227 -43 callsubr
          161 -1451 -100 callsubr
        </CharString>
        <CharString name="ampersand">
          1643 530 -28 rmoveto
          192 143 84 156 146 hvcurveto
          225 -212 rlineto
          377 91 hlineto
          -78 25 -67 47 -207 196 rrcurveto
          -72 67 125 159 139 176 52 28 108 14 rlinecurve
          97 -484 -97 vlineto
          149 -24 14 -37 -94 -138 rrcurveto
          -77 -114 -335 313 -7 6 -7 7 -7 6 rlinecurve
          218 90 105 113 142 vvcurveto
          183 -153 126 -243 -264 -172 -158 -192 -120 50 -99 124 -136 vhcurveto
          -237 -88 -111 -135 -178 vvcurveto
          -243 192 -155 256 vhcurveto
          -12 1211 rmoveto
          96 69 65 105 108 66 -80 -115 -1 vhcurveto
          -2 -115 -51 -83 -112 -66 rrcurveto
          -137 136 -45 73 89 vvcurveto
          -173 -709 rmoveto
          103 48 72 99 56 vhcurveto
          32 -32 34 -34 39 -36 355 -335 rcurveline
          -90 -89 -84 -37 -97 hhcurveto
          -184 -153 134 199 hvcurveto
          endchar
        </CharString>
        <CharString name="anoteleiagreek">
          579 290 706 57 callgsubr
          endchar
        </CharString>
        <CharString name="aogonek">
          1183 388 -23 rmoveto
          157 127 69 87 61 hvcurveto
          -91 27 91 -56 113 hhcurveto
          3 hlineto
          -181 -108 -62 -92 -98 vvcurveto
          -112 96 -67 120 87 86 31 47 43 vhcurveto
          96 vlineto
          -16 -18 -33 -11 -40 hhcurveto
          -53 -47 34 69 85 53 77 136 115 hvcurveto
          91 vlineto
          -6 -14 -18 -2 -21 hhcurveto
          -57 -47 31 86 hvcurveto
          459 vlineto
          240 -161 105 -263 -260 -194 -107 -144 -76 59 -52 80 82 59 56 73 40 -18 36 -28 23 vhcurveto
          15 39 47 8 51 hhcurveto
          140 93 -61 -171 hvcurveto
          -68 vlineto
          -231 -50 rlineto
          -295 -63 -113 -104 -161 vvcurveto
          -148 125 -109 179 vhcurveto
          -28 304 rmoveto
          98 67 57 178 39 vhcurveto
          118 26 rlineto
          -283 vlineto
          -56 -38 -71 -36 -84 hhcurveto
          -98 -72 57 98 hvcurveto
          endchar
        </CharString>
        <CharString name="approxequal">
          1244 875 815 rmoveto
          -135 -181 214 -191 hhcurveto
          -187 -118 -125 -275 hvcurveto
          164 hlineto
          21 callgsubr
          275 hvcurveto
          -164 hlineto
          -157 -3 -52 -56 -86 hhcurveto
          -499 vmoveto
          19 callgsubr
          157 3 52 57 85 136 181 -215 191 hhcurveto
          187 118 125 275 hvcurveto
          -164 hlineto
          -157 -3 -52 -57 -86 hhcurveto
          endchar
        </CharString>
        <CharString name="aring">
          1186 255 1364 rmoveto
          -131 130 42 callgsubr
          -130 -91 -130 vhcurveto
          189 hmoveto
          73 48 48 62 62 48 -48 -73 -73 -48 -48 -62 -62 -48 48 73 vhcurveto
          -56 -1387 -100 callsubr
        </CharString>
        <CharString name="aringacute">
          1186 858 1548 rmoveto
          168 vlineto
          -608 18 callgsubr
          -89 hlineto
          -134 -89 -60 -93 -92 89 -61 134 hvcurveto
          76 8 callgsubr
          -197 -1233 -100 callsubr
        </CharString>
        <CharString name="aringbelow">
          1186 388 -23 38 callsubr
          -48 -581 211 callsubr
        </CharString>
        <CharString name="asciicircum">
          1244 576 1444 rmoveto
          -473 -600 126 -118 391 493 390 -493 131 118 -471 600 rlineto
          endchar
        </CharString>
        <CharString name="asciitilde">
          1244 875 568 rmoveto
          19 callgsubr
          21 callgsubr
          276 hvcurveto
          -164 hlineto
          -157 -3 -52 -58 -86 hhcurveto
          endchar
        </CharString>
        <CharString name="asterisk">
          839 397 1126 rmoveto
          44 hlineto
          59 211 rlineto
          84 28 -51 55 -57 hhcurveto
          -59 -50 -54 -85 29 hvcurveto
          101 -211 rmoveto
          21 -38 208 54 rlineto
          87 18 21 72 -28 49 -30 51 -73 17 -58 -68 rrcurveto
          -213 -193 rmoveto
          21 38 -147 155 rlineto
          -58 68 -74 -17 -29 -51 -28 -49 20 -72 88 -18 rrcurveto
          228 -94 rmoveto
          -21 40 -207 -56 rlineto
          -87 -17 -21 -73 28 -49 29 -51 73 -16 59 67 rrcurveto
          212 195 rmoveto
          -21 -40 148 -155 rlineto
          58 -67 74 17 29 50 29 50 -21 71 -88 18 rrcurveto
          -229 16 rmoveto
          -44 hlineto
          -57 -210 rlineto
          -85 -29 51 -54 58 hhcurveto
          58 51 54 85 -29 hvcurveto
          endchar
        </CharString>
        <CharString name="at">
          2045 580 382 rmoveto
          -215 86 -123 143 117 110 63 141 76 vhcurveto
          -137 -7 74 -88 171 hhcurveto
          315 281 268 424 430 -330 296 -514 -626 -375 -496 -515 -514 348 -327 454 184 183 52 68 80 hvcurveto
          3 97 rlineto
          -65 -127 -126 -23 -169 hhcurveto
          -399 -284 271 452 430 317 442 540 428 266 -233 -380 -340 -204 -190 -169 -78 -18 35 95 19 hvcurveto
          145 677 -157 0 -85 -110 rlineto
          81 -32 -75 57 -113 hhcurveto
          -264 -188 -313 -310 hvcurveto
          248 -1 rmoveto
          228 107 284 157 74 44 -59 -90 -3 vhcurveto
          -63 -293 rlineto
          -141 -29 -92 -111 -93 hhcurveto
          -67 -35 69 113 hvcurveto
          endchar
        </CharString>
        <CharString name="atilde">
          1186 686 -53 callsubr
          57 callsubr
          4 callsubr
          -50 callgsubr
          21 36 42 hhcurveto
          29 59 callsubr
          -298 -1233 -100 callsubr
        </CharString>
        <CharString name="austral">
          1488 210 297 rmoveto
          -58 -160 -24 -24 -130 -16 rrcurveto
          -97 486 97 vlineto
          -158 21 -20 27 51 149 rrcurveto
          27 80 575 0 27 -80 52 -149 -21 -27 -158 -21 rlinecurve
          -97 631 97 vlineto
          -126 16 -27 24 -58 155 -29 82 rcurveline
          240 85 -271 hlineto
          -70 194 rlineto
          341 85 -372 hlineto
          -255 706 -233 0 -259 -706 rlineto
          -372 -85 341 hlineto
          -71 -194 rlineto
          -270 -85 239 hlineto
          271 364 rmoveto
          162 475 163 -475 rlineto
          -421 -279 rmoveto
          67 194 383 0 67 -194 rlineto
          endchar
        </CharString>
        <CharString name="austral.tnum">
          1244 -2 455 rmoveto
          -84 188 vlineto
          -22 -77 -47 -160 -13 -27 -106 -10 rlinecurve
          -97 396 97 vlineto
          -125 13 -13 20 45 163 rrcurveto
          22 78 444 0 21 -77 45 -164 -13 -18 -130 -15 rlinecurve
          -97 555 97 vlineto
          -105 10 -13 26 -48 161 -23 77 rcurveline
          191 84 -215 hlineto
          -57 194 rlineto
          272 85 -297 hlineto
          -207 710 -240 0 -210 -710 rlineto
          -295 -85 271 hlineto
          -58 -194 rlineto
          212 279 rmoveto
          124 445 121 -445 rlineto
          -322 -279 rmoveto
          54 194 291 0 53 -194 rlineto
          endchar
        </CharString>
        <CharString name="b">
          -98 callgsubr
          89 callsubr
          endchar
        </CharString>
        <CharString name="backslash">
          716 501 -280 rmoveto
          213 hlineto
          -498 1860 rlineto
          -214 hlineto
          endchar
        </CharString>
        <CharString name="baht">
          1410 72 30 rmoveto
          618 -219 84 220 hlineto
          313 12 227 142 249 vvcurveto
          212 -160 122 -243 20 vhcurveto
          187 24 147 99 181 vvcurveto
          191 -159 120 -312 10 vhcurveto
          219 -84 -218 -618 -97 vlineto
          63 callgsubr
          449 681 rmoveto
          494 vlineto
          126 -4 rlineto
          15 14 -1 -1 14 hvcurveto
          -488 vlineto
          -6 -7 0 -6 hhcurveto
          286 246 rmoveto
          -130 -66 -78 -117 -27 vhcurveto
          462 vlineto
          126 -33 57 -79 -115 vvcurveto
          -436 -358 rmoveto
          150 hlineto
          6 7 0 -1 6 hvcurveto
          -547 vlineto
          -1 -14 -14 -1 -15 hhcurveto
          -126 -4 rlineto
          496 281 rmoveto
          -148 -91 -83 -152 -32 vhcurveto
          528 vlineto
          157 -26 86 -91 -148 vvcurveto
          endchar
        </CharString>
        <CharString name="baht.tnum">
          1244 51 36 rmoveto
          570 -225 84 226 hlineto
          285 11 223 144 236 24 callgsubr
          172 -139 117 -298 9 vhcurveto
          226 -84 -225 -570 -97 vlineto
          64 callgsubr
          424 674 rmoveto
          491 vlineto
          121 -2 rlineto
          -1 9 8 0 8 hhcurveto
          -488 vlineto
          -8 -7 0 -8 hhcurveto
          271 256 rmoveto
          -119 -57 -88 -107 -34 vhcurveto
          458 vlineto
          104 -30 60 -75 -112 vvcurveto
          -394 -366 rmoveto
          123 hlineto
          8 7 0 8 hhcurveto
          -548 vlineto
          -8 -8 0 -1 -9 hvcurveto
          -121 -2 rlineto
          456 275 rmoveto
          -147 -94 -83 -132 -30 vhcurveto
          527 vlineto
          144 -28 82 -89 -150 vvcurveto
          endchar
        </CharString>
        <CharString name="bar">
          716 252 -280 rmoveto
          213 1860 -213 hlineto
          endchar
        </CharString>
        <CharString name="bdotaccent">
          1282 303 1641 rmoveto
          86 68 62 86 85 -68 61 -86 -85 -68 -61 -85 -86 68 -62 85 hvcurveto
          887 -1119 rmoveto
          89 callsubr
          endchar
        </CharString>
        <CharString name="bdotbelow">
          -98 callgsubr
          89 callsubr
          -253 -932 -78 callsubr
        </CharString>
        <CharString name="becyrillic">
          1292 1200 504 rmoveto
          306 -201 194 -317 -207 -155 -106 -153 -79 vhcurveto
          -1 16 0 17 18 vvcurveto
          204 90 164 283 28 vhcurveto
          130 14 306 30 88 77 15 207 rlinecurve
          -97 hlineto
          -18 -49 -45 -14 -225 -25 -226 -26 -141 -65 -106 -104 rrcurveto
          -132 -129 -68 -199 -317 vvcurveto
          -365 194 -250 347 306 259 200 327 vhcurveto
          -293 -15 rmoveto
          -234 -87 -149 -167 -159 -97 160 232 225 85 155 171 153 101 -158 -231 vhcurveto
          endchar
        </CharString>
        <CharString name="betagreek">
          1243 141 -460 rmoveto
          287 hlineto
          -4 202 -3 178 -3 157 rrcurveto
          -55 58 102 -48 124 hhcurveto
          233 225 156 284 257 -166 162 -208 33 hvcurveto
          150 18 152 114 179 vvcurveto
          202 -155 148 -294 -285 -213 -155 -389 vhcurveto
          267 85 rmoveto
          212 72 114 153 132 69 -98 -148 -165 -105 -90 -196 vhcurveto
          -191 vlineto
          229 -5 126 -122 -197 vvcurveto
          -180 -112 -88 -141 -94 -80 35 55 -44 vhcurveto
          -8 479 -1 261 128 vvcurveto
          endchar
        </CharString>
        <CharString name="bitcoin">
          1399 72 30 rmoveto
          449 -219 85 219 114 hlineto
          29 28 1 2 28 hvcurveto
          -222 85 233 vlineto
          245 41 168 135 214 vvcurveto
          212 -159 122 -243 20 vhcurveto
          186 24 148 99 181 vvcurveto
          163 -116 112 -229 35 vhcurveto
          230 -85 -221 vlineto
          2 -27 -29 1 -29 hhcurveto
          -114 218 -85 -218 -449 -97 hlineto
          63 callgsubr
          874 927 rmoveto
          -164 -104 -82 -181 vhcurveto
          -140 494 hlineto
          116 -4 rlineto
          215 -7 94 -89 -148 vvcurveto
          61 -631 rmoveto
          -186 -145 -83 -225 -8 vhcurveto
          -116 -4 rlineto
          554 140 vlineto
          222 124 -95 -178 hvcurveto
          endchar
        </CharString>
        <CharString name="bitcoin.tnum">
          1244 51 36 rmoveto
          400 -225 84 225 134 hlineto
          22 22 1 2 21 hvcurveto
          -228 85 238 vlineto
          228 41 166 134 204 24 callgsubr
          148 -104 108 -219 32 vhcurveto
          235 -85 -226 vlineto
          1 -21 -22 1 -22 hhcurveto
          -134 224 -84 -224 -400 -97 hlineto
          64 callgsubr
          814 930 rmoveto
          -155 -94 -101 -176 vhcurveto
          -116 491 hlineto
          115 -2 rlineto
          169 -4 102 -82 -147 vvcurveto
          63 -644 rmoveto
          -183 -150 -83 -184 -5 vhcurveto
          -115 -2 rlineto
          551 116 vlineto
          210 123 -97 -181 hvcurveto
          endchar
        </CharString>
        <CharString name="blinebelow">
          -98 callgsubr
          89 callsubr
          -557 -871 -80 callsubr
        </CharString>
        <CharString name="braceleft">
          716 462 988 rmoveto
          231 vlineto
          144 25 120 171 vhcurveto
          97 -47 vlineto
          -259 -130 -134 -219 hvcurveto
          -318 vlineto
          -154 -82 -60 -115 vhcurveto
          -87 vlineto
          115 82 -60 -154 hvcurveto
          -321 vlineto
          -219 130 -134 259 vhcurveto
          47 97 hlineto
          -171 -25 120 145 hvcurveto
          232 vlineto
          201 -92 108 -180 29 vhcurveto
          180 28 92 107 201 vvcurveto
          endchar
        </CharString>
        <CharString name="braceright">
          716 254 988 rmoveto
          -201 92 -107 180 -28 vhcurveto
          -180 -29 -92 -108 -201 vvcurveto
          -232 vlineto
          -145 -25 -120 -171 vhcurveto
          -97 47 vlineto
          259 130 134 219 hvcurveto
          321 vlineto
          154 82 60 115 vhcurveto
          87 vlineto
          -115 -82 60 154 hvcurveto
          318 vlineto
          219 -130 134 -259 vhcurveto
          -47 -97 hlineto
          171 25 -120 -144 hvcurveto
          endchar
        </CharString>
        <CharString name="bracketleft">
          716 171 -280 rmoveto
          480 97 -240 1666 240 97 -480 hlineto
          endchar
        </CharString>
        <CharString name="bracketright">
          716 545 1580 rmoveto
          -480 -97 240 -1666 -240 -97 480 hlineto
          endchar
        </CharString>
        <CharString name="breve">
          1024 512 -105 callgsubr
          -110 vlineto
          -4 -56 callgsubr
          endchar
        </CharString>
        <CharString name="breveacutecmb">
          -81 callgsubr
          304 -313 -37 callsubr
          endchar
        </CharString>
        <CharString name="breveacutecmb.short">
          -82 callgsubr
          311 -256 -17 callsubr
          endchar
        </CharString>
        <CharString name="brevebelowcmb">
          0 -464 vmoveto
          -9 callgsubr
          -103 vlineto
          -3 -62 callgsubr
        </CharString>
        <CharString name="brevecmb">
          0 1180 vmoveto
          212 119 146 159 22 -1 21 41 callgsubr
          -110 vlineto
          -4 -56 callgsubr
          endchar
        </CharString>
        <CharString name="brevecmb.short">
          0 1161 vmoveto
          193 109 129 138 19 -1 17 -5 callsubr
          -14 callsubr
          endchar
        </CharString>
        <CharString name="brevecyrilliccmb">
          0 1174 vmoveto
          213 callsubr
          -48 54 -70 -78 -50 -50 -87 -150 140 -114 203 vhcurveto
          endchar
        </CharString>
        <CharString name="brevecyrilliccmb.short">
          0 1585 vmoveto
          158 callsubr
          170 callsubr
          endchar
        </CharString>
        <CharString name="brevegravecmb">
          0 -304 124 callsubr
          304 -575 -37 callsubr
          endchar
        </CharString>
        <CharString name="brevegravecmb.short">
          0 -312 -60 callgsubr
          312 -478 -17 callsubr
          endchar
        </CharString>
        <CharString name="brevehookabovecmb">
          0 -7 0 callgsubr
          77 50 93 vvcurveto
          93 -97 51 -113 vhcurveto
          7 -567 -37 callsubr
          endchar
        </CharString>
        <CharString name="brevehookabovecmb.short">
          0 -7 206 callsubr
          endchar
        </CharString>
        <CharString name="brevetildecmb">
          0 126 97 callsubr
          26 21 39 122 callsubr
          -126 -338 -37 callsubr
          endchar
        </CharString>
        <CharString name="brevetildecmb.short">
          0 130 1802 -72 callgsubr
          156 callsubr
          -130 -278 -17 callsubr
          endchar
        </CharString>
        <CharString name="brokenbar">
          716 252 789 rmoveto
          213 791 -213 hlineto
          -1860 vmoveto
          213 791 -213 hlineto
          endchar
        </CharString>
        <CharString name="bullet">
          824 412 357 rmoveto
          130 107 107 130 132 -107 65 callgsubr
        </CharString>
        <CharString name="c">
          1084 616 -23 8 callsubr
        </CharString>
        <CharString name="cacute">
          1084 596 -66 callsubr
          141 -1195 8 callsubr
        </CharString>
        <CharString name="caret">
          579 251 hmoveto
          -300 -362 102 -102 235 284 236 -284 105 102 -297 362 rlineto
          endchar
        </CharString>
        <CharString name="caron">
          1024 729 -59 callsubr
          121 callsubr
          endchar
        </CharString>
        <CharString name="caroncmb">
          0 217 -59 callsubr
          121 callsubr
          endchar
        </CharString>
        <CharString name="caroncmb.short">
          0 212 1433 rmoveto
          -199 -149 -79 callsubr
          endchar
        </CharString>
        <CharString name="carondotaccentcmb">
          0 1434 vmoveto
          72 callgsubr
          304 -23 rmoveto
          -304 -106 -304 106 -51 callgsubr
          endchar
        </CharString>
        <CharString name="carondotaccentcmb.short">
          0 1785 vmoveto
          63 49 41 -37 callgsubr
          -2 callgsubr
          endchar
        </CharString>
        <CharString name="caronslovak">
          1024 474 1133 -42 callgsubr
          endchar
        </CharString>
        <CharString name="caronslovakcmb">
          0 115 1133 -43 callgsubr
          endchar
        </CharString>
        <CharString name="ccaron">
          1084 844 37 callgsubr
          -349 -1577 8 callsubr
        </CharString>
        <CharString name="ccedilla">
          1084 569 31 callsubr
          -23 callsubr
          63 79 157 10 128 58 70 81 rlinecurve
          148 callsubr
          -295 196 -192 256 -31 vhcurveto
          -99 -123 rlineto
          -26 callgsubr
          -8 callsubr
          137 callsubr
        </CharString>
        <CharString name="ccedillaacute">
          1084 596 -66 callsubr
          94 -1663 rmoveto
          75 callsubr
          -23 callsubr
          63 79 157 10 128 58 70 81 rlinecurve
          148 callsubr
          -295 196 -192 256 -31 vhcurveto
          -99 -123 rlineto
          -26 callgsubr
          -8 callsubr
          137 callsubr
        </CharString>
        <CharString name="ccircumflex">
          1084 410 -15 callsubr
          328 -1195 8 callsubr
        </CharString>
        <CharString name="cdotaccent">
          1084 627 17 callgsubr
          -11 -1237 8 callsubr
        </CharString>
        <CharString name="cedi">
          1364 753 -189 rmoveto
          84 200 hlineto
          174 3 170 51 84 59 10 328 rcurveline
          -90 hlineto
          -241 -57 -109 -69 -171 -3 -4 0 -4 hhcurveto
          1160 vlineto
          4 4 0 3 hhcurveto
          170 103 -77 -229 58 hvcurveto
          90 hlineto
          -11 328 -98 58 -136 47 -187 4 rlinecurve
          199 -84 -200 vlineto
          -377 -24 -268 -252 -434 vvcurveto
          -428 286 -253 359 -28 vhcurveto
          -348 729 rmoveto
          312 125 197 223 42 vhcurveto
          -1140 vlineto
          -209 49 -139 215 325 vvcurveto
          endchar
        </CharString>
        <CharString name="cedi.tnum">
          1244 693 -189 rmoveto
          84 200 hlineto
          156 5 150 43 86 49 11 322 rcurveline
          -91 hlineto
          -226 -55 -100 -63 -148 hhcurveto
          -3 -3 0 1 -3 hvcurveto
          1160 vlineto
          3 3 0 3 hhcurveto
          134 97 -69 -213 52 hvcurveto
          91 hlineto
          -11 321 -90 50 -120 38 -162 4 rlinecurve
          199 -84 -200 vlineto
          -348 -25 -252 -256 1 -429 rrcurveto
          -456 271 -231 328 -23 vhcurveto
          -304 731 rmoveto
          314 107 191 197 44 vhcurveto
          -1140 vlineto
          -190 47 -114 197 347 vvcurveto
          endchar
        </CharString>
        <CharString name="cedilla">
          1024 477 31 callsubr
          -108 67 -132 3 hvcurveto
          -5 callgsubr
          -26 -54 -52 -51 -27 -67 -56 -55 16 22 -34 hvcurveto
          -95 vlineto
          -34 48 76 -21 92 hhcurveto
          endchar
        </CharString>
        <CharString name="cedillacmb">
          0 -35 31 callsubr
          -23 callsubr
          -5 callgsubr
          -8 callsubr
          -27 callgsubr
          endchar
        </CharString>
        <CharString name="cent">
          1110 668 78 callgsubr
          -112 -31 -104 hhcurveto
          -32 -30 3 6 -29 hvcurveto
          763 vlineto
          10 10 1 10 hhcurveto
          44 40 -6 -12 34 hvcurveto
          -28 -23 -17 -36 -40 vvcurveto
          -77 57 -60 79 77 61 57 82 147 -143 92 -234 5 vhcurveto
          190 -84 -193 vlineto
          -273 227 callsubr
          276 -12 vhcurveto
          -191 vlineto
          -209 760 rmoveto
          180 83 121 126 45 vhcurveto
          -718 vlineto
          -128 60 -81 131 181 vvcurveto
          endchar
        </CharString>
        <CharString name="cent.1">
          1078 661 hmoveto
          192 vlineto
          154 10 126 58 70 80 rrcurveto
          97 vlineto
          -53 -60 -99 -32 -93 hhcurveto
          -223 -155 155 256 228 126 134 168 40 35 -4 -10 29 hvcurveto
          -32 -24 -21 -41 -45 vvcurveto
          -78 60 -59 80 78 63 60 85 147 -130 91 -216 7 vhcurveto
          190 -85 -192 vlineto
          -266 -25 -219 -197 -316 vvcurveto
          -311 213 -196 272 -16 vhcurveto
          -191 vlineto
          endchar
        </CharString>
        <CharString name="cent.1.tnum">
          1244 707 hmoveto
          192 vlineto
          155 10 126 58 70 80 rrcurveto
          97 vlineto
          -53 -60 -100 -32 -92 hhcurveto
          -222 -155 155 256 228 125 134 168 41 34 -4 -10 29 hvcurveto
          -32 -24 -21 -41 -45 vvcurveto
          -78 60 -59 81 77 63 60 85 147 -129 91 -218 7 vhcurveto
          190 -84 -192 vlineto
          -266 -25 -218 -197 -316 vvcurveto
          -310 212 -196 272 -17 vhcurveto
          -191 vlineto
          endchar
        </CharString>
        <CharString name="cent.tnum">
          1244 700 78 callgsubr
          -113 -31 -103 hhcurveto
          -32 -30 3 6 -29 hvcurveto
          763 vlineto
          10 9 1 10 hhcurveto
          45 40 -6 -12 34 hvcurveto
          -28 -23 -18 -36 -40 vvcurveto
          -77 58 -60 78 77 62 57 82 147 -144 92 -233 5 vhcurveto
          190 -85 -193 vlineto
          -272 227 callsubr
          275 -12 vhcurveto
          -191 vlineto
          -208 760 rmoveto
          180 83 121 125 45 vhcurveto
          -718 vlineto
          -128 60 -80 131 181 vvcurveto
          endchar
        </CharString>
        <CharString name="checyrillic">
          1335 175 708 rmoveto
          -228 148 -106 197 129 117 34 42 67 vhcurveto
          -258 vlineto
          -73 -21 -13 -140 -9 vhcurveto
          -97 588 97 vlineto
          -127 8 -20 13 74 vvcurveto
          632 vlineto
          75 20 13 127 8 vhcurveto
          97 -554 -97 vlineto
          111 -7 16 -13 -73 vvcurveto
          -278 vlineto
          -17 -36 -81 -18 -71 hhcurveto
          -126 -67 62 153 hvcurveto
          98 vlineto
          73 17 13 108 7 vhcurveto
          97 -546 -97 vlineto
          125 -8 19 -13 -75 vvcurveto
          endchar
        </CharString>
        <CharString name="chigreek">
          1177 317 -460 rmoveto
          181 628 144 -319 rlineto
          -243 104 81 -86 148 hhcurveto
          82 66 35 45 46 hvcurveto
          95 vlineto
          -9 -14 -26 -8 -28 hhcurveto
          -74 -44 42 198 -92 hvcurveto
          -174 384 123 233 141 246 156 236 rlinecurve
          -293 hlineto
          -180 -599 -130 287 rlineto
          240 -104 -81 85 -146 hhcurveto
          -82 -67 -34 -46 -46 hvcurveto
          -94 vlineto
          9 15 26 7 27 hhcurveto
          74 47 -40 -199 90 hvcurveto
          159 -351 -136 -268 -143 -255 -142 -219 rlinecurve
          endchar
        </CharString>
        <CharString name="circumflex">
          1024 295 63 callsubr
          99 callgsubr
          endchar
        </CharString>
        <CharString name="circumflexacutecmb">
          -81 callgsubr
          -311 vmoveto
          -34 callsubr
          endchar
        </CharString>
        <CharString name="circumflexacutecmb.short">
          0 312 1839 28 callsubr
          -83 vlineto
          -1 -270 rmoveto
          97 callgsubr
          endchar
        </CharString>
        <CharString name="circumflexbelowcmb">
          0 -202 -473 132 callsubr
          -184 0 -223 -345 rlineto
          endchar
        </CharString>
        <CharString name="circumflexcmb">
          0 -217 63 callsubr
          99 callgsubr
          endchar
        </CharString>
        <CharString name="circumflexcmb.short">
          0 -185 1137 rmoveto
          199 148 197 -148 120 0 -215 -67 callsubr
          endchar
        </CharString>
        <CharString name="circumflexgravecmb">
          0 -304 124 callsubr
          -573 vmoveto
          -34 callsubr
          endchar
        </CharString>
        <CharString name="circumflexgravecmb.short">
          0 -312 164 callsubr
          endchar
        </CharString>
        <CharString name="circumflexhookabovecmb">
          0 235 1705 rmoveto
          -77 -72 -27 -33 -42 hvcurveto
          -79 vlineto
          15 29 53 15 50 hhcurveto
          69 37 126 callsubr
          77 50 93 vvcurveto
          93 -98 -93 callgsubr
          -34 callsubr
          endchar
        </CharString>
        <CharString name="circumflexhookabovecmb.short">
          0 255 146 callsubr
          endchar
        </CharString>
        <CharString name="circumflextildecmb">
          0 126 97 callsubr
          26 21 39 122 callsubr
          -430 -336 rmoveto
          -34 callsubr
          endchar
        </CharString>
</ttFont>
